<?xml version="1.0" encoding="utf-8"?>
<!-- Generator: Adobe Illustrator 25.4.1, SVG Export Plug-In . SVG Version: 6.00 Build 0)  -->
<svg version="1.1" id="Layer_1" xmlns="http://www.w3.org/2000/svg" xmlns:xlink="http://www.w3.org/1999/xlink" x="0px" y="0px"
	 width="160px" height="160px" viewBox="0 0 160 160" style="enable-background:new 0 0 160 160;" xml:space="preserve">
<style type="text/css">
	.st0{fill:#414F7F;}
	.st1{fill:#7988B2;}
</style>
<g>
	<path class="st0" d="M157.2,73.7c-5.5-8-16.7-9.2-23.7-2.9c1.5-15.5-10.7-28.6-26-28.6c-5.9,0-11.4,2-15.8,5.3
		c-0.8-17.4-15.1-31.4-32.8-31.4c-19.9,0-35.2,17.7-32.3,37.5C12.6,51.2,0,61.9,0,75.9c0,12.5,10.1,22.7,22.8,22.7h121.3
		C156.9,98.6,164.4,84.2,157.2,73.7z"/>
	<path class="st1" d="M125.7,130.5c-0.8-0.5-1.1-1.6-0.6-2.4l10-16.4c0.5-0.8,1.6-1.1,2.4-0.6c0.8,0.5,1.1,1.6,0.6,2.4l-10,16.4
		C127.6,130.8,126.5,131,125.7,130.5z"/>
	<path class="st1" d="M74,130.5c-0.8-0.5-1.1-1.6-0.6-2.4l10-16.4c0.5-0.8,1.6-1.1,2.4-0.6c0.8,0.5,1.1,1.6,0.6,2.4l-10,16.4
		C75.9,130.8,74.8,131,74,130.5z"/>
	<g>
		<path class="st1" d="M93.1,143.6c-0.8-0.5-1.1-1.6-0.6-2.4l10-16.4c0.5-0.8,1.6-1.1,2.4-0.6c0.8,0.5,1.1,1.6,0.6,2.4l-10,16.4
			C95,143.9,93.9,144.1,93.1,143.6z"/>
		<path class="st1" d="M41.3,143.6c-0.8-0.5-1.1-1.6-0.6-2.4l10-16.4c0.5-0.8,1.6-1.1,2.4-0.6c0.8,0.5,1.1,1.6,0.6,2.4l-10,16.4
			C43.2,143.9,42.1,144.1,41.3,143.6z"/>
	</g>
	<path class="st1" d="M22.2,130.5c-0.8-0.5-1.1-1.6-0.6-2.4l10-16.4c0.5-0.8,1.6-1.1,2.4-0.6c0.8,0.5,1.1,1.6,0.6,2.4l-10,16.4
		C24.1,130.8,23,131,22.2,130.5z"/>
</g>
</svg>
