<?xml version="1.0" encoding="utf-8"?>
<!-- Generator: Adobe Illustrator 25.3.1, SVG Export Plug-In . SVG Version: 6.00 Build 0)  -->
<svg version="1.1" id="Layer_1" xmlns="http://www.w3.org/2000/svg" xmlns:xlink="http://www.w3.org/1999/xlink" x="0px" y="0px"
	 width="160px" height="160px" viewBox="0 0 160 160" style="enable-background:new 0 0 160 160;" xml:space="preserve">
<style type="text/css">
	.st0{fill:#414F7F;}
	.st1{fill:#7988B2;}
</style>
<g>
	<path class="st0" d="M157.2,67c-5.5-8-16.7-9.2-23.7-2.9c1.5-15.5-10.7-28.6-26-28.6c-5.9,0-11.4,2-15.8,5.3
		C90.9,23.4,76.6,9.4,58.9,9.4C39,9.4,23.7,27.1,26.6,46.9C12.6,44.5,0,55.3,0,69.3C0,81.7,10.1,92,22.8,91.9c5.1,0,115.7,0,121.3,0
		C156.9,91.9,164.4,77.5,157.2,67z"/>
	<path class="st0" d="M5.4,119.6c-0.8-0.5-1.1-1.6-0.6-2.4l7.2-11.9c0.5-0.8,1.6-1.1,2.4-0.6c0.8,0.5,1.1,1.6,0.6,2.4L7.8,119
		C7.3,119.8,6.2,120.1,5.4,119.6z"/>
	<path class="st1" d="M38.7,114.9c-0.8-0.5-1.1-1.6-0.6-2.4l5.6-9.2c0.5-0.8,1.6-1.1,2.4-0.6c0.8,0.5,1.1,1.6,0.6,2.4l-5.6,9.2
		C40.6,115.2,39.5,115.5,38.7,114.9z"/>
	<path class="st1" d="M127.6,139.3c-0.8-0.5-1.1-1.6-0.6-2.4l5.6-9.2c0.5-0.8,1.6-1.1,2.4-0.6c0.8,0.5,1.1,1.6,0.6,2.4l-5.6,9.2
		C129.6,139.5,128.5,139.8,127.6,139.3z"/>
	<path class="st1" d="M9,142.5c-0.8-0.5-1.1-1.6-0.6-2.4l7.6-12.5c0.5-0.8,1.6-1.1,2.4-0.6s1.1,1.6,0.6,2.4l-7.6,12.5
		C10.9,142.8,9.8,143,9,142.5z"/>
	<path class="st0" d="M117.1,119.6c-0.8-0.5-1.1-1.6-0.6-2.4l8.4-13.8c0.5-0.8,1.6-1.1,2.4-0.6c0.8,0.5,1.1,1.6,0.6,2.4l-8.4,13.8
		C119.1,119.8,118,120.1,117.1,119.6z"/>
	<path class="st0" d="M91,139.3c-0.8-0.5-1.1-1.6-0.6-2.4l7.7-12.7c0.5-0.8,1.6-1.1,2.4-0.6s1.1,1.6,0.6,2.4l-7.7,12.7
		C92.9,139.5,91.8,139.8,91,139.3z"/>
	<path class="st0" d="M42.3,150.3c-0.8-0.5-1.1-1.6-0.6-2.4l22.1-36.3c0.9-1.5,3.3-0.9,3.3,0.9v21.2l19.5-31.9
		c0.5-0.8,1.6-1.1,2.4-0.6s1.1,1.6,0.6,2.4L66.8,141c-0.9,1.5-3.3,0.9-3.3-0.9v-21.2l-18.8,30.9C44.2,150.5,43.1,150.8,42.3,150.3z"
		/>
</g>
</svg>
