<?xml version="1.0" encoding="utf-8"?>
<!-- Generator: Adobe Illustrator 25.4.1, SVG Export Plug-In . SVG Version: 6.00 Build 0)  -->
<svg version="1.1" id="Layer_1" xmlns="http://www.w3.org/2000/svg" xmlns:xlink="http://www.w3.org/1999/xlink" x="0px" y="0px"
	 width="32px" height="32px" viewBox="0 0 32 32" style="enable-background:new 0 0 32 32;" xml:space="preserve">
<style type="text/css">
	.st0{fill:#EE7674;}
</style>
<g>
	<g>
		<path class="st0" d="M30.8,19.1c-2,0-3,0.5-4,1c-0.9,0.5-1.8,0.9-3.5,0.9c-0.1,0-0.1,0-0.1,0c0.9-1.4,1.3-2.9,1.3-4.5
			c0-4.8-3.9-8.7-8.7-8.7s-8.7,3.9-8.7,8.7c0,1.6,0.5,3.2,1.3,4.5c-0.1,0-0.1,0-0.1,0c-1.8,0-2.6-0.4-3.5-0.9c-1-0.5-2-1-4-1
			c-0.3,0-0.6,0.2-0.6,0.6c0,0.3,0.2,0.6,0.6,0.6c1.8,0,2.6,0.4,3.5,0.9c1,0.5,2,1,4,1s3-0.5,4-1c0.9-0.5,1.8-0.9,3.5-0.9
			c1.8,0,2.6,0.4,3.5,0.9c1,0.5,2,1,4,1s3-0.5,4-1c0.9-0.5,1.8-0.9,3.5-0.9c0.3,0,0.6-0.2,0.6-0.6C31.4,19.3,31.1,19.1,30.8,19.1z
			 M15.8,19.1c-2,0-3,0.5-4,1c-0.6,0.3-1.2,0.6-2.1,0.7c-1-1.3-1.4-2.8-1.4-4.4c0-4.1,3.4-7.5,7.5-7.5c4.2,0,7.5,3.4,7.5,7.5
			c0,1.6-0.5,3.1-1.4,4.4c-0.9-0.2-1.5-0.5-2.1-0.7C18.8,19.6,17.8,19.1,15.8,19.1z"/>
		<path class="st0" d="M28.6,23.9c-1.8,0-2.7,0.5-3.5,1s-1.5,0.9-2.9,0.9c-1.4,0-2.1-0.4-2.9-0.9s-1.7-1-3.5-1c-1.8,0-2.7,0.5-3.5,1
			c-0.8,0.5-1.5,0.9-2.9,0.9c-1.4,0-2.1-0.4-2.9-0.9s-1.7-1-3.5-1c-0.3,0-0.6,0.2-0.6,0.6c0,0.3,0.2,0.6,0.6,0.6
			c1.4,0,2.1,0.4,2.9,0.9c0.8,0.5,1.7,1,3.5,1c1.8,0,2.7-0.5,3.5-1c0.8-0.5,1.5-0.9,2.9-0.9c1.4,0,2.1,0.4,2.9,0.9
			c0.8,0.5,1.7,1,3.5,1c1.8,0,2.7-0.5,3.5-1c0.8-0.5,1.5-0.9,2.9-0.9c0.3,0,0.6-0.2,0.6-0.6C29.2,24.2,28.9,23.9,28.6,23.9z"/>
		<path class="st0" d="M25.7,28.7c-1.4,0-2.2,0.5-2.8,1c-0.6,0.4-1.1,0.8-2.1,0.8c-1,0-1.5-0.3-2.1-0.8c-0.6-0.5-1.4-1-2.8-1
			c-1.4,0-2.2,0.5-2.8,1c-0.6,0.4-1.1,0.8-2.1,0.8c-1,0-1.5-0.3-2.1-0.8c-0.6-0.5-1.4-1-2.8-1c-0.3,0-0.6,0.2-0.6,0.6
			c0,0.3,0.2,0.6,0.6,0.6c1,0,1.5,0.3,2.1,0.8c0.6,0.5,1.4,1,2.8,1c1.4,0,2.2-0.5,2.8-1c0.6-0.4,1.1-0.8,2.1-0.8
			c1,0,1.5,0.3,2.1,0.8c0.6,0.5,1.4,1,2.8,1c1.4,0,2.2-0.5,2.8-1c0.6-0.4,1.1-0.8,2.1-0.8c0.3,0,0.6-0.2,0.6-0.6
			C26.3,28.9,26,28.7,25.7,28.7z"/>
		<path class="st0" d="M15.8,9.9c-3.6,0.1-6.5,3-6.5,6.6c0,0.3,0.3,0.6,0.6,0.6c0.3,0,0.6-0.3,0.6-0.6c-0.1-3,2.3-5.4,5.3-5.4
			c0.3,0,0.6-0.3,0.6-0.6C16.4,10.1,16.1,9.9,15.8,9.9z"/>
		<path class="st0" d="M5.3,16.4c-0.1,0-0.1,0-0.1,0c-0.2,0-1.5,0-2.3,0c-0.3,0-0.6,0.3-0.6,0.6c0,0.3,0.3,0.6,0.6,0.6
			c1.1,0,1.8,0,2.2-0.1h0.1c0.6-0.1,0.6-0.2,0.6-0.5C5.9,16.7,5.7,16.5,5.3,16.4z"/>
		<path class="st0" d="M5.2,15.2C5.2,15.2,5.3,15.2,5.2,15.2c0.3,0,0.6-0.2,0.6-0.5c0-0.3-0.2-0.6-0.5-0.6l-4.7-0.4
			c-0.3-0.1-0.6,0.2-0.6,0.5c0,0.3,0.2,0.6,0.5,0.6L5.2,15.2z"/>
		<path class="st0" d="M6.2,11.9c-0.2-0.1-1.4-0.6-2.1-0.9c-0.3-0.1-0.6,0-0.7,0.3c-0.1,0.3,0,0.6,0.3,0.7c1,0.5,1.6,0.7,2,0.9
			L5.7,13c0.2,0.1,0.3,0.1,0.5,0.1c0.2,0,0.2-0.1,0.3-0.3c0.1-0.3,0.1-0.6-0.2-0.7C6.2,11.9,6.2,11.9,6.2,11.9z"/>
		<path class="st0" d="M2.5,8.3l4.1,2.5c0.1,0.1,0.2,0.1,0.3,0.1c0.2,0,0.4-0.1,0.5-0.3c0.2-0.3,0.1-0.6-0.2-0.8L3.1,7.3
			C2.9,7.1,2.5,7.2,2.3,7.4C2.2,7.8,2.3,8.1,2.5,8.3z"/>
		<path class="st0" d="M8.1,8.9C8.1,8.9,8.1,9,8.1,8.9c0.3,0.3,0.4,0.3,0.5,0.3s0.2-0.1,0.3-0.2C9.1,8.9,9.2,8.6,9,8.3
			C9,8.2,9,8.2,9,8.2C8.8,8,8,7,7.5,6.5C7.3,6.2,6.9,6.2,6.7,6.4C6.5,6.6,6.4,7,6.6,7.2C7.3,8.1,7.8,8.6,8.1,8.9z"/>
		<path class="st0" d="M9.8,7.4c0.1,0.2,0.3,0.3,0.5,0.3c0.1,0,0.2,0,0.3-0.1c0.3-0.2,0.4-0.5,0.2-0.8L8.5,2.4C8.3,2.1,8,2,7.7,2.2
			C7.4,2.4,7.3,2.7,7.5,3L9.8,7.4z"/>
		<path class="st0" d="M11.9,6.3c0,0.1,0,0.1,0,0.1c0.2,0.4,0.3,0.5,0.4,0.5c0.1,0,0.2,0,0.2-0.1c0.3-0.1,0.5-0.3,0.5-0.6
			c0-0.1,0-0.1-0.1-0.1c-0.1-0.2-0.4-1.4-0.6-2.2c-0.1-0.3-0.4-0.5-0.7-0.4c-0.3,0.1-0.5,0.4-0.4,0.7C11.6,5.2,11.8,5.9,11.9,6.3z"
			/>
		<path class="st0" d="M14.7,6.2C14.8,6.2,14.8,6.2,14.7,6.2c0.3,0,0.6-0.3,0.6-0.6L15.2,1c0-0.3-0.3-0.6-0.6-0.6
			c-0.3,0-0.6,0.3-0.6,0.6l0.2,4.7C14.2,6,14.5,6.2,14.7,6.2z"/>
		<path class="st0" d="M17,6.4c0.1,0,0.1,0,0.1,0c0.2,0,0.5-0.2,0.6-0.4c0-0.1,0-0.1,0-0.1c0.1-0.2,0.2-1.5,0.4-2.3
			c0.1-0.3-0.2-0.6-0.5-0.7c-0.3-0.1-0.6,0.2-0.7,0.5c-0.2,1.1-0.3,1.8-0.3,2.2c0,0,0,0.1-0.1,0.1C16.5,6.2,16.6,6.3,17,6.4z"/>
		<path class="st0" d="M19.2,6.7c0.1,0,0.1,0.1,0.2,0.1c0.2,0,0.5-0.1,0.5-0.3l1.8-4.5c0.1-0.3,0-0.6-0.3-0.7
			c-0.3-0.1-0.6,0-0.7,0.3L18.9,6C18.7,6.2,18.9,6.6,19.2,6.7z"/>
		<path class="st0" d="M21,6.9c-0.3,0.6-0.2,0.6,0.1,0.8c0.1,0.1,0.2,0.1,0.3,0.1c0.2,0,0.3-0.1,0.5-0.2c0-0.1,0.1-0.1,0.1-0.1
			c0.1-0.2,0.9-1.2,1.3-1.9c0.2-0.2,0.2-0.5-0.1-0.7c-0.3-0.2-0.6-0.1-0.8,0.2C21.7,6,21.3,6.6,21,6.9C21,6.9,21,6.9,21,6.9z"/>
		<path class="st0" d="M23,9c0.1,0.1,0.2,0.2,0.4,0.2s0.3-0.1,0.4-0.2L27,5.6c0.2-0.2,0.2-0.6,0-0.8c-0.2-0.2-0.6-0.2-0.8,0L23,8.2
			C22.7,8.5,22.7,8.8,23,9z"/>
		<path class="st0" d="M26.5,8.8c-0.9,0.6-1.5,0.9-1.9,1.1c0,0-0.1,0-0.1,0.1c-0.5,0.3-0.5,0.5-0.3,0.7c0.1,0.2,0.3,0.3,0.5,0.3
			c0.1,0,0.2,0,0.2-0.1c0.1,0,0.1-0.1,0.1-0.1c0.2-0.1,1.3-0.7,1.9-1.1c0.3-0.2,0.3-0.5,0.2-0.8C27.1,8.7,26.7,8.6,26.5,8.8z"/>
		<path class="st0" d="M25.4,12.7c0.1,0.2,0.3,0.3,0.5,0.3c0.1,0,0.2,0,0.2-0.1l4.3-1.9c0.3-0.1,0.4-0.5,0.3-0.7
			c-0.1-0.3-0.5-0.4-0.7-0.3L25.7,12C25.4,12.1,25.3,12.4,25.4,12.7z"/>
		<path class="st0" d="M26.5,14.2L26.5,14.2c-0.7,0.1-0.6,0.2-0.6,0.6c0,0.3,0.3,0.6,0.6,0.6c0.1,0,0.1,0,0.1,0
			c0.2,0,1.5-0.2,2.3-0.2c0.3-0.1,0.6-0.3,0.5-0.6c-0.1-0.3-0.3-0.6-0.6-0.5C27.6,14.1,26.9,14.1,26.5,14.2z"/>
		<path class="st0" d="M31.4,16.6h-4.8c-0.3,0-0.6,0.2-0.6,0.6c0,0.3,0.2,0.6,0.6,0.6h4.8c0.3,0,0.6-0.2,0.6-0.6
			C32,16.8,31.8,16.6,31.4,16.6z"/>
	</g>
</g>
</svg>
