<svg width="66" height="64" viewBox="0 0 66 64" fill="none" xmlns="http://www.w3.org/2000/svg">
<g clip-path="url(#clip0)">
<path d="M63.14 38.4C59.04 38.4 56.9314 39.4473 54.94 40.3782C53.0657 41.3091 51.3086 42.1236 47.7943 42.1236C47.6771 42.1236 47.6771 42.1236 47.56 42.1236C49.3171 39.3309 50.2543 36.1891 50.2543 32.8146C50.2543 23.04 42.2886 15.0109 32.4486 15.0109C22.6086 15.0109 14.6428 23.04 14.6428 32.8146C14.6428 36.1891 15.58 39.3309 17.3371 42.1236C17.22 42.1236 17.22 42.1236 17.1028 42.1236C13.4714 42.1236 11.7143 41.3091 9.95712 40.3782C7.96569 39.4473 5.85712 38.4 1.75712 38.4C1.05426 38.4 0.585693 38.8655 0.585693 39.5637C0.585693 40.2618 1.05426 40.7273 1.75712 40.7273C5.38855 40.7273 7.14569 41.5418 8.90284 42.4727C10.8943 43.4036 13.0028 44.4509 17.1028 44.4509C21.2028 44.4509 23.3114 43.4036 25.3028 42.4727C27.1771 41.5418 28.9343 40.7273 32.4486 40.7273C36.08 40.7273 37.8371 41.5418 39.5943 42.4727C41.5857 43.4036 43.6943 44.4509 47.7943 44.4509C51.8943 44.4509 54.0028 43.4036 55.9943 42.4727C57.8686 41.5418 59.6257 40.7273 63.14 40.7273C63.8428 40.7273 64.3114 40.2618 64.3114 39.5637C64.3114 38.8655 63.8428 38.4 63.14 38.4ZM32.4486 38.4C28.3486 38.4 26.24 39.4473 24.2486 40.3782C22.96 40.96 21.7886 41.5418 19.9143 41.8909C17.9228 39.2146 16.9857 36.0727 16.9857 32.8146C16.9857 24.32 23.8971 17.3382 32.4486 17.3382C41 17.3382 47.9114 24.32 47.9114 32.8146C47.9114 36.0727 46.8571 39.2146 44.9828 41.8909C43.2257 41.5418 41.9371 40.96 40.6486 40.3782C38.54 39.3309 36.5486 38.4 32.4486 38.4Z" fill="#EE7674"/>
<path d="M58.6885 48.2909C55.0571 48.2909 53.1828 49.3382 51.5428 50.2691C49.9028 51.2 48.4971 52.0145 45.5685 52.0145C42.64 52.0145 41.2343 51.2 39.5943 50.2691C37.9543 49.3382 36.08 48.2909 32.4485 48.2909C28.8171 48.2909 26.9428 49.3382 25.3028 50.2691C23.6628 51.2 22.2571 52.0145 19.3285 52.0145C16.4 52.0145 14.9943 51.2 13.3543 50.2691C11.7143 49.3382 9.83997 48.2909 6.20854 48.2909C5.50568 48.2909 5.03711 48.7563 5.03711 49.4545C5.03711 50.1527 5.50568 50.6182 6.20854 50.6182C9.13711 50.6182 10.5428 51.4327 12.1828 52.3636C13.8228 53.2945 15.6971 54.3418 19.3285 54.3418C22.96 54.3418 24.8343 53.2945 26.4743 52.3636C28.1143 51.4327 29.52 50.6182 32.4485 50.6182C35.3771 50.6182 36.7828 51.4327 38.4228 52.3636C40.0628 53.2945 41.9371 54.3418 45.5685 54.3418C49.2 54.3418 51.0743 53.2945 52.7143 52.3636C54.3543 51.4327 55.76 50.6182 58.6885 50.6182C59.3914 50.6182 59.86 50.1527 59.86 49.4545C59.86 48.7563 59.2743 48.2909 58.6885 48.2909Z" fill="#EE7674"/>
<path d="M52.7143 57.9491C49.7857 57.9491 48.2629 58.9964 46.9743 60.0436C45.8029 60.8582 44.7486 61.6727 42.64 61.6727C40.5314 61.6727 39.4772 60.9745 38.3057 60.0436C37.0172 59.1127 35.4943 57.9491 32.5657 57.9491C29.6372 57.9491 28.1143 58.9964 26.8257 60.0436C25.6543 60.8582 24.6 61.6727 22.4914 61.6727C20.3829 61.6727 19.3286 60.9745 18.1572 60.0436C16.8686 59.1127 15.3457 57.9491 12.4172 57.9491C11.7143 57.9491 11.2457 58.4146 11.2457 59.1127C11.2457 59.8109 11.7143 60.2764 12.4172 60.2764C14.5257 60.2764 15.58 60.9745 16.7514 61.9055C18.04 62.8364 19.5629 64 22.4914 64C25.42 64 26.9429 62.9527 28.2314 61.9055C29.4029 61.0909 30.4572 60.2764 32.5657 60.2764C34.6743 60.2764 35.7286 60.9745 36.9 61.9055C38.1886 62.8364 39.7114 64 42.64 64C45.5686 64 47.0914 62.9527 48.38 61.9055C49.5514 61.0909 50.6057 60.2764 52.7143 60.2764C53.4172 60.2764 53.8857 59.8109 53.8857 59.1127C53.8857 58.5309 53.3 57.9491 52.7143 57.9491Z" fill="#EE7674"/>
<path d="M32.4486 19.4327C25.0686 19.5491 19.2114 25.6 19.2114 32.9309C19.2114 33.5127 19.7971 34.0946 20.3829 34.0946C21.0857 34.0946 21.5543 33.5127 21.5543 32.9309C21.4371 26.88 26.3571 21.8764 32.4486 21.8764C33.1514 21.8764 33.62 21.2946 33.62 20.7127C33.62 19.8982 33.0343 19.4327 32.4486 19.4327Z" fill="#EE7674"/>
<path d="M10.8943 32.8146C10.7771 32.8146 10.7771 32.8146 10.66 32.8146C10.1914 32.8146 7.61428 32.8146 5.97428 32.8146C5.27143 32.8146 4.80286 33.3964 4.80286 33.9782C4.80286 34.56 5.38857 35.1418 5.97428 35.1418C8.2 35.1418 9.60571 35.1418 10.4257 35.0255H10.5429C11.8314 34.9091 11.8314 34.6764 11.8314 33.9782C12.0657 33.3964 11.5971 32.9309 10.8943 32.8146Z" fill="#EE7674"/>
<path d="M10.66 30.3709C10.66 30.3709 10.7771 30.3709 10.66 30.3709C11.3629 30.3709 11.8314 29.9055 11.9486 29.3236C11.9486 28.6255 11.48 28.16 10.8943 28.0436L1.28857 27.2291C0.585714 27.1127 0.117143 27.6945 0 28.2764C0 28.9745 0.468571 29.44 1.05429 29.5564L10.66 30.3709Z" fill="#EE7674"/>
<path d="M12.6514 23.6218C12.1829 23.3891 9.84001 22.3418 8.43429 21.76C7.84858 21.5273 7.14572 21.76 6.91143 22.3418C6.67715 22.9237 6.91143 23.6218 7.49715 23.8546C9.48858 24.7855 10.7771 25.3673 11.5971 25.7164L11.7143 25.8327C12.0657 25.9491 12.4171 26.0655 12.6514 26.0655C13.0029 26.0655 13.12 25.8327 13.3543 25.4837C13.5886 24.9018 13.4714 24.2037 12.8857 23.9709C12.7686 23.6218 12.7686 23.6218 12.6514 23.6218Z" fill="#EE7674"/>
<path d="M5.1543 16.1746L13.5886 21.2946C13.8229 21.4109 13.94 21.4109 14.1743 21.4109C14.5257 21.4109 14.9943 21.1782 15.2286 20.8291C15.58 20.2473 15.3457 19.5491 14.8772 19.2L6.44287 14.08C5.85716 13.7309 5.1543 13.9636 4.80287 14.4291C4.45144 15.1273 4.68573 15.8255 5.1543 16.1746Z" fill="#EE7674"/>
<path d="M16.5171 17.4546C16.5171 17.4546 16.5171 17.5709 16.6343 17.5709C17.1029 18.0364 17.3371 18.1528 17.5714 18.1528C17.8057 18.1528 17.9229 18.0364 18.2743 17.8037C18.7429 17.4546 18.86 16.7564 18.5086 16.1746C18.5086 16.0582 18.3914 16.0582 18.3914 15.9418C18.04 15.5928 16.4 13.6146 15.3457 12.4509C14.8771 11.9855 14.1743 11.8691 13.7057 12.3346C13.2371 12.8 13.12 13.4982 13.5886 13.9637C14.9943 15.7091 15.9314 16.7564 16.5171 17.4546Z" fill="#EE7674"/>
<path d="M20.1486 14.3127C20.3829 14.6618 20.7343 14.8946 21.2029 14.8946C21.4371 14.8946 21.5543 14.8946 21.7886 14.7782C22.3743 14.4291 22.6086 13.7309 22.2571 13.1491L17.4543 4.1891C17.1029 3.60729 16.4 3.37456 15.8143 3.72365C15.2286 4.07274 14.9943 4.77092 15.3457 5.35274L20.1486 14.3127Z" fill="#EE7674"/>
<path d="M24.4828 12.1018C24.4828 12.2182 24.4828 12.2182 24.4828 12.3346C24.8343 13.1491 25.0686 13.3818 25.3028 13.3818C25.42 13.3818 25.6543 13.3818 25.7714 13.2655C26.3571 13.1491 26.8257 12.5673 26.7086 11.9855C26.7086 11.8691 26.7086 11.8691 26.5914 11.7527C26.4743 11.2873 25.7714 8.84365 25.3028 7.33092C25.1857 6.7491 24.4828 6.40001 23.8971 6.51638C23.3114 6.63274 22.96 7.33092 23.0771 7.91274C23.78 9.89092 24.2486 11.2873 24.4828 12.1018Z" fill="#EE7674"/>
<path d="M30.2229 11.9855C30.34 11.9855 30.34 11.9855 30.2229 11.9855C30.9257 11.9855 31.3943 11.4036 31.3943 10.8218L31.16 1.16364C31.16 0.465454 30.5743 0 29.9886 0C29.2857 0 28.8171 0.581818 28.8171 1.16364L29.1686 10.8218C29.1686 11.4036 29.6371 11.9855 30.2229 11.9855Z" fill="#EE7674"/>
<path d="M34.7915 12.2182C34.9086 12.2182 34.9086 12.2182 35.0257 12.2182C35.4943 12.2182 35.9629 11.8691 36.1972 11.4036C36.1972 11.2873 36.1972 11.2873 36.1972 11.1709C36.3143 10.7055 36.6657 8.14546 37.0172 6.51636C37.1343 5.93455 36.6657 5.23636 36.08 5.12C35.4943 5.00364 34.7915 5.46909 34.6743 6.05091C34.3229 8.26182 34.0886 9.65818 33.9715 10.4727C33.9715 10.4727 33.9715 10.5891 33.8543 10.5891C33.8543 11.9855 34.0886 12.1018 34.7915 12.2182Z" fill="#EE7674"/>
<path d="M39.36 12.9164C39.4771 12.9164 39.5943 13.0327 39.8286 13.0327C40.2971 13.0327 40.7657 12.8 40.8828 12.3346L44.6314 3.02548C44.8657 2.44366 44.6314 1.74548 43.9285 1.51275C43.3428 1.28002 42.64 1.51275 42.4057 2.21093L38.6571 11.52C38.4228 11.9855 38.7743 12.6837 39.36 12.9164Z" fill="#EE7674"/>
<path d="M43.1086 13.3818C42.5228 14.5455 42.7571 14.6618 43.2257 15.0109C43.46 15.1273 43.6943 15.2436 43.9286 15.2436C44.28 15.2436 44.6314 15.1273 44.8657 14.7782C44.8657 14.6618 44.9828 14.6618 44.9828 14.5455C45.2171 14.1964 46.74 11.9855 47.56 10.7055C48.0286 10.3564 47.9114 9.65819 47.3257 9.3091C46.74 8.96 46.0371 9.07637 45.6857 9.65819C44.3971 11.52 43.5771 12.6836 43.2257 13.3818C43.1086 13.2655 43.1086 13.3818 43.1086 13.3818Z" fill="#EE7674"/>
<path d="M47.0914 17.6873C47.3257 17.92 47.56 18.0364 47.9114 18.0364C48.2628 18.0364 48.4971 17.92 48.7314 17.6873L55.4086 10.5891C55.8771 10.1236 55.8771 9.42545 55.4086 8.95999C54.94 8.49454 54.2371 8.49454 53.7686 8.95999L47.0914 16.0582C46.6228 16.5236 46.6228 17.2218 47.0914 17.6873Z" fill="#EE7674"/>
<path d="M54.2372 17.2218C52.3629 18.3854 51.0743 19.0836 50.3714 19.5491C50.3714 19.5491 50.2543 19.5491 50.2543 19.6654C49.2 20.3636 49.3172 20.5963 49.6686 21.1782C49.9029 21.5272 50.2543 21.76 50.7229 21.76C50.84 21.76 51.0743 21.76 51.1914 21.6436C51.3086 21.6436 51.3086 21.5272 51.4257 21.5272C51.7772 21.2945 54.0029 20.0145 55.4086 19.2C55.9943 18.8509 56.1114 18.1527 55.8772 17.5709C55.5257 17.1054 54.8229 16.8727 54.2372 17.2218Z" fill="#EE7674"/>
<path d="M52.1285 25.2509C52.3628 25.7164 52.7143 25.9491 53.1828 25.9491C53.3 25.9491 53.5342 25.9491 53.6514 25.8327L62.4371 21.9927C63.0228 21.76 63.2571 21.0618 63.0228 20.48C62.7885 19.8982 62.0857 19.6655 61.5 19.8982L52.7143 23.7382C52.1285 23.9709 51.8943 24.6691 52.1285 25.2509Z" fill="#EE7674"/>
<path d="M54.3543 28.2764H54.2371C52.9486 28.5091 53.0657 28.7418 53.0657 29.44C53.0657 30.0218 53.6514 30.6036 54.2371 30.6036C54.3543 30.6036 54.3543 30.6036 54.4714 30.6036C54.94 30.6036 57.5171 30.2545 59.1571 30.1382C59.7428 30.0218 60.3286 29.5564 60.2114 28.8582C60.0943 28.16 59.6257 27.6945 58.9228 27.8109C56.58 28.0436 55.1743 28.16 54.3543 28.2764Z" fill="#EE7674"/>
<path d="M64.4285 33.1636H54.5885C53.8857 33.1636 53.4171 33.6291 53.4171 34.3273C53.4171 35.0255 53.8857 35.4909 54.5885 35.4909H64.4285C65.1314 35.4909 65.6 35.0255 65.6 34.3273C65.6 33.6291 65.1314 33.1636 64.4285 33.1636Z" fill="#EE7674"/>
</g>
<defs>
<clipPath id="clip0">
<rect width="65.6" height="64" fill="white"/>
</clipPath>
</defs>
</svg>
