<?xml version="1.0" encoding="utf-8"?>
<!-- Generator: Adobe Illustrator 25.3.1, SVG Export Plug-In . SVG Version: 6.00 Build 0)  -->
<svg version="1.1" id="Layer_1" xmlns="http://www.w3.org/2000/svg" xmlns:xlink="http://www.w3.org/1999/xlink" x="0px" y="0px"
	 width="50px" height="50px" viewBox="0 0 50 50" style="enable-background:new 0 0 50 50;" xml:space="preserve">
<style type="text/css">
	.st0{fill:#EAC62F;}
</style>
<g>
	<ellipse class="st0" cx="25" cy="25" rx="12.9" ry="12.9"/>
	<g>
		<path class="st0" d="M25,8.6c-0.3,0-0.5-0.2-0.5-0.5V0.5C24.5,0.2,24.7,0,25,0s0.5,0.2,0.5,0.5V8C25.5,8.3,25.3,8.6,25,8.6z"/>
		<path class="st0" d="M18,9.5L16.6,6c-0.1-0.3,0-0.6,0.3-0.7s0.6,0,0.7,0.3L19,9.1c0.1,0.3,0,0.6-0.3,0.7C18.4,9.9,18.1,9.8,18,9.5
			z"/>
		<path class="st0" d="M9.1,19l-3.5-1.4c-0.3-0.1-0.4-0.4-0.3-0.7c0.1-0.3,0.4-0.4,0.7-0.3L9.5,18c0.3,0.1,0.4,0.4,0.3,0.7
			C9.7,19,9.4,19.1,9.1,19z"/>
		<path class="st0" d="M5.4,33.1c-0.1-0.3,0-0.6,0.3-0.7L9.1,31c0.3-0.1,0.6,0,0.7,0.3c0.1,0.3,0,0.6-0.3,0.7L6,33.4
			C5.8,33.5,5.5,33.4,5.4,33.1z"/>
		<path class="st0" d="M16.9,44.6c-0.3-0.1-0.4-0.4-0.3-0.7l1.4-3.5c0.1-0.3,0.4-0.4,0.7-0.3c0.3,0.1,0.4,0.4,0.3,0.7l-1.4,3.5
			C17.5,44.6,17.1,44.8,16.9,44.6z"/>
		<path class="st0" d="M32.4,44.4L31,40.9c-0.1-0.3,0-0.6,0.3-0.7c0.3-0.1,0.6,0,0.7,0.3l1.4,3.5c0.1,0.3,0,0.6-0.3,0.7
			C32.9,44.8,32.5,44.6,32.4,44.4z"/>
		<path class="st0" d="M43.9,33.4L40.5,32c-0.3-0.1-0.4-0.4-0.3-0.7c0.1-0.3,0.4-0.4,0.7-0.3l3.5,1.4c0.3,0.1,0.4,0.4,0.3,0.7
			C44.5,33.4,44.2,33.5,43.9,33.4z"/>
		<path class="st0" d="M40.2,18.7c-0.1-0.3,0-0.6,0.3-0.7l3.5-1.4c0.3-0.1,0.6,0,0.7,0.3c0.1,0.3,0,0.6-0.3,0.7L40.9,19
			C40.6,19.1,40.3,19,40.2,18.7z"/>
		<path class="st0" d="M31.3,9.8C31,9.7,30.9,9.4,31,9.1l1.4-3.5c0.1-0.3,0.4-0.4,0.7-0.3s0.4,0.4,0.3,0.7L32,9.5
			C31.9,9.8,31.6,9.9,31.3,9.8z"/>
		<path class="st0" d="M12.6,13.4L7.3,8.1c-0.2-0.2-0.2-0.6,0-0.8c0.2-0.2,0.6-0.2,0.8,0l5.3,5.3c0.2,0.2,0.2,0.6,0,0.8
			C13.2,13.6,12.8,13.6,12.6,13.4z"/>
		<path class="st0" d="M8,25.5H0.5C0.2,25.5,0,25.3,0,25s0.2-0.5,0.5-0.5H8c0.3,0,0.5,0.2,0.5,0.5C8.6,25.3,8.3,25.5,8,25.5z"/>
		<path class="st0" d="M7.3,42.7c-0.2-0.2-0.2-0.6,0-0.8l5.3-5.3c0.2-0.2,0.6-0.2,0.8,0s0.2,0.6,0,0.8l-5.3,5.3
			C7.9,42.9,7.5,42.9,7.3,42.7z"/>
		<path class="st0" d="M25,50c-0.3,0-0.5-0.2-0.5-0.5V42c0-0.3,0.2-0.5,0.5-0.5s0.5,0.2,0.5,0.5v7.5C25.5,49.8,25.3,50,25,50z"/>
		<path class="st0" d="M41.9,42.7l-5.3-5.3c-0.2-0.2-0.2-0.6,0-0.8s0.6-0.2,0.8,0l5.3,5.3c0.2,0.2,0.2,0.6,0,0.8
			S42.1,42.9,41.9,42.7z"/>
		<path class="st0" d="M49.5,25.5H42c-0.3,0-0.5-0.2-0.5-0.5s0.2-0.5,0.5-0.5h7.5c0.3,0,0.5,0.2,0.5,0.5S49.8,25.5,49.5,25.5z"/>
		<path class="st0" d="M36.6,13.4c-0.2-0.2-0.2-0.6,0-0.8l5.3-5.3c0.2-0.2,0.6-0.2,0.8,0s0.2,0.6,0,0.8l-5.3,5.3
			C37.2,13.6,36.8,13.6,36.6,13.4z"/>
	</g>
</g>
</svg>
