<?xml version="1.0" encoding="utf-8"?>
<!-- Generator: Adobe Illustrator 25.3.1, SVG Export Plug-In . SVG Version: 6.00 Build 0)  -->
<svg version="1.1" id="Layer_1" xmlns="http://www.w3.org/2000/svg" xmlns:xlink="http://www.w3.org/1999/xlink" x="0px" y="0px"
	 width="160px" height="160px" viewBox="0 0 160 160" style="enable-background:new 0 0 160 160;" xml:space="preserve">
<style type="text/css">
	.st0{fill:#414F7F;}
	.st1{fill:#7988B2;}
</style>
<g>
	<path class="st0" d="M97,50.2c-0.6,1-1,2-1.5,3C84.3,48,72,58,74.7,70c-4.2-1.4-8.5-0.9-12.1,1c-1.2,0.6-2.3,1.4-3.2,2.4H18.5
		c-6.5,0-12.2-3.3-15.6-8.3c-8.4-12.6,1.6-29,16.6-29c0.6-11.4,10-20.4,21.5-20.4c9.1,0,16.9,5.6,20,13.6c10.7-5,22.5,4.5,19.9,16
		c4-1.3,8.1-0.9,11.5,1C94.3,47.3,95.8,48.6,97,50.2z"/>
	<path class="st1" d="M156.6,90.8c-3.5,5.3-9.5,8.8-16.4,8.8H69.8C58.3,99.5,51,87.2,56.5,77.2c1.4-2.6,3.6-4.7,6.1-6.1
		c3.6-1.9,7.9-2.4,12.1-1C72,58,84.3,48,95.6,53.2c3.3-8.3,11.4-14.3,21-14.3c12.1,0,21.9,9.4,22.6,21.3
		C155,60.3,165.5,77.6,156.6,90.8z"/>
	<path class="st1" d="M105,130.1c0-1.1,0.9-2,2-2l25.4-0.2c1.1,0,2,0.9,2,2s-0.9,2-2,2l-25.4,0.2C105.9,132,105,131.2,105,130.1z"/>
	<path class="st0" d="M25.6,130.2c0-1.1,0.9-2,2-2l59.4-0.4c1.1,0,2,0.9,2,2s-0.9,2-2,2l-59.4,0.4C26.5,132.2,25.6,131.3,25.6,130.2
		z"/>
	<path class="st1" d="M21.8,142.3c0-1.1,0.9-2,2-2l25.4-0.2c1.1,0,2,0.9,2,2s-0.9,2-2,2l-25.4,0.2C22.7,144.3,21.8,143.4,21.8,142.3
		z"/>
	<path class="st1" d="M112.6,142.3c0-1.1,0.9-2,2-2l21.7-0.1c1.1,0,2,0.9,2,2s-0.9,2-2,2l-21.7,0.1
		C113.5,144.3,112.6,143.4,112.6,142.3z"/>
	<g>
		<path class="st0" d="M67.2,142.3c0-1.1,0.9-2,2-2l25.4-0.2c1.1,0,2,0.9,2,2s-0.9,2-2,2l-25.4,0.2
			C68.1,144.3,67.2,143.4,67.2,142.3z"/>
	</g>
	<path class="st1" d="M64.6,117.7c0-1.1,0.9-2,2-2l21.7-0.1c1.1,0,2,0.9,2,2s-0.9,2-2,2l-21.7,0.1C65.5,119.7,64.6,118.8,64.6,117.7
		z"/>
	<g>
		<path class="st1" d="M106.3,117.8c0-1.1,0.9-2,2-2l30.5-0.2c1.1,0,2,0.9,2,2s-0.9,2-2,2l-30.5,0.2
			C107.2,119.8,106.3,118.9,106.3,117.8z"/>
	</g>
	<g>
		<path class="st0" d="M19.2,117.7c0-1.1,0.9-2,2-2l25.4-0.2c1.1,0,2,0.9,2,2s-0.9,2-2,2l-25.4,0.2
			C20.1,119.7,19.2,118.9,19.2,117.7z"/>
	</g>
</g>
</svg>
