<?xml version="1.0" encoding="utf-8"?>
<!-- Generator: Adobe Illustrator 25.3.1, SVG Export Plug-In . SVG Version: 6.00 Build 0)  -->
<svg version="1.1" id="Layer_1" xmlns="http://www.w3.org/2000/svg" xmlns:xlink="http://www.w3.org/1999/xlink" x="0px" y="0px"
	 width="160px" height="160px" viewBox="0 0 160 160" style="enable-background:new 0 0 160 160;" xml:space="preserve">
<style type="text/css">
	.st0{fill:#EAC62F;}
</style>
<g>
	<ellipse class="st0" cx="80" cy="80.5" rx="41.2" ry="41.2"/>
	<g>
		<path class="st0" d="M80,27.9c-1,0-1.7-0.8-1.7-1.7v-24c0-1,0.8-1.7,1.7-1.7s1.7,0.8,1.7,1.7v23.9C81.7,27.1,81,27.9,80,27.9z"/>
		<path class="st0" d="M57.6,31L53,20c-0.3-1,0.1-2,1-2.4s1.9,0.1,2.3,0.9l4.6,11c0.4,0.9-0.1,1.9-0.9,2.3C59,32.3,58,31.8,57.6,31z
			"/>
		<path class="st0" d="M29.1,61.3l-11-4.6c-0.9-0.4-1.3-1.4-0.9-2.3c0.4-0.9,1.4-1.3,2.3-0.9l11,4.6c0.9,0.4,1.3,1.4,0.9,2.3
			C31,61.3,30,61.7,29.1,61.3z"/>
		<path class="st0" d="M17.1,106.5c-0.4-0.9,0.1-1.9,0.9-2.3l11-4.6c0.9-0.4,1.9,0.1,2.3,0.9c0.4,0.9-0.1,1.9-0.9,2.3l-11,4.6
			C18.5,107.8,17.5,107.4,17.1,106.5z"/>
		<path class="st0" d="M54,143.4c-0.9-0.4-1.3-1.4-0.9-2.3l4.6-11c0.4-0.9,1.4-1.3,2.3-0.9c0.9,0.4,1.3,1.4,0.9,2.3l-4.6,11
			C55.9,143.3,54.8,143.7,54,143.4z"/>
		<path class="st0" d="M103.8,142.4l-4.6-11c-0.4-0.9,0.1-1.9,0.9-2.3c0.9-0.4,1.9,0.1,2.3,0.9l4.6,11c0.4,0.9-0.1,1.9-0.9,2.3
			C105.1,143.7,104.1,143.3,103.8,142.4z"/>
		<path class="st0" d="M140.6,107.5l-11-4.6c-0.9-0.4-1.3-1.4-0.9-2.3c0.4-0.9,1.4-1.3,2.3-0.9l11,4.6c0.9,0.4,1.3,1.4,0.9,2.3
			C142.5,107.4,141.5,107.8,140.6,107.5z"/>
		<path class="st0" d="M128.6,60.4c-0.4-0.9,0.1-1.9,0.9-2.3l11-4.6c0.9-0.4,1.9,0.1,2.3,0.9c0.4,0.9-0.1,1.9-0.9,2.3l-11,4.6
			C130,61.7,129,61.3,128.6,60.4z"/>
		<path class="st0" d="M100.1,31.9c-0.9-0.4-1.3-1.4-0.9-2.3l4.6-11c0.4-0.9,1.4-1.3,2.3-0.9s1.3,1.4,0.9,2.3l-4.6,11
			C102,31.9,101,32.3,100.1,31.9z"/>
		<path class="st0" d="M40.3,43.3L23.4,26.4c-0.7-0.7-0.7-1.8,0-2.5s1.8-0.7,2.5,0l16.9,16.9c0.7,0.7,0.7,1.8,0,2.5S41,44,40.3,43.3
			z"/>
		<path class="st0" d="M25.7,82.2h-24c-1,0-1.7-0.8-1.7-1.7c0-1,0.8-1.7,1.7-1.7h23.9c1,0,1.7,0.8,1.7,1.7
			C27.4,81.5,26.6,82.2,25.7,82.2z"/>
		<path class="st0" d="M23.4,137.1c-0.7-0.7-0.7-1.8,0-2.5l16.9-16.9c0.7-0.7,1.8-0.7,2.5,0s0.7,1.8,0,2.5l-16.9,16.9
			C25.2,137.7,24.1,137.7,23.4,137.1z"/>
		<path class="st0" d="M80,160.5c-1,0-1.7-0.8-1.7-1.7v-23.9c0-1,0.8-1.7,1.7-1.7s1.7,0.8,1.7,1.7v23.9
			C81.7,159.7,81,160.5,80,160.5z"/>
		<path class="st0" d="M134.1,137.1l-16.9-16.9c-0.7-0.7-0.7-1.8,0-2.5s1.8-0.7,2.5,0l16.9,16.9c0.7,0.7,0.7,1.8,0,2.5
			C135.9,137.7,134.8,137.7,134.1,137.1z"/>
		<path class="st0" d="M158.3,82.2h-23.9c-1,0-1.7-0.8-1.7-1.7c0-1,0.8-1.7,1.7-1.7h23.9c1,0,1.7,0.8,1.7,1.7
			C160,81.5,159.2,82.2,158.3,82.2z"/>
		<path class="st0" d="M117.2,43.3c-0.7-0.7-0.7-1.8,0-2.5l16.9-16.9c0.7-0.7,1.8-0.7,2.5,0s0.7,1.8,0,2.5l-16.9,16.9
			C119,44,117.9,44,117.2,43.3z"/>
	</g>
</g>
</svg>
