<?xml version="1.0" encoding="utf-8"?>
<!-- Generator: Adobe Illustrator 25.3.1, SVG Export Plug-In . SVG Version: 6.00 Build 0)  -->
<svg version="1.1" id="Layer_1" xmlns="http://www.w3.org/2000/svg" xmlns:xlink="http://www.w3.org/1999/xlink" x="0px" y="0px"
	 width="160px" height="160px" viewBox="0 0 160 160" style="enable-background:new 0 0 160 160;" xml:space="preserve">
<style type="text/css">
	.st0{fill:#EAC62F;}
	.st1{fill:#7988B2;}
</style>
<g>
	<path class="st0" d="M131.7,83.5c0,14.2-7.9,26.5-19.6,32.8c-2.7,0-5.2,0.8-7.3,2.2C106.7,107.3,98,97,86.6,97
		c-3.1,0-5.9,0.7-8.5,2.1c-0.3-11.7-8.6-21.4-19.7-23.8C62.2,58.8,77,46.4,94.6,46.4C115.1,46.3,131.7,63,131.7,83.5z"/>
	<g>
		<path class="st0" d="M94.6,38.2c-1,0-1.8-0.8-1.8-1.8V19.8c0-1,0.8-1.8,1.8-1.8s1.8,0.8,1.8,1.8v16.7
			C96.3,37.4,95.5,38.2,94.6,38.2z"/>
		<path class="st0" d="M74.9,40.7l-2.6-6.4c-0.4-0.9,0.1-1.9,1-2.3c0.9-0.4,1.9,0.1,2.3,1l2.6,6.4c0.4,0.9-0.1,1.9-1,2.3
			C76.3,42,75.3,41.6,74.9,40.7z"/>
		<path class="st0" d="M50.4,67.1L44,64.5c-0.9-0.4-1.3-1.4-1-2.3c0.4-0.9,1.4-1.3,2.3-1l6.4,2.6c0.9,0.4,1.3,1.4,1,2.3
			C52.4,67.1,51.3,67.5,50.4,67.1z"/>
		<path class="st0" d="M143.7,105.8l-6.4-2.6c-0.9-0.4-1.3-1.4-1-2.3c0.4-0.9,1.4-1.3,2.3-1l6.4,2.6c0.9,0.4,1.3,1.4,1,2.3
			C145.7,105.7,144.6,106.1,143.7,105.8z"/>
		<path class="st0" d="M136.4,66.2c-0.4-0.9,0.1-1.9,1-2.3l6.4-2.6c0.9-0.4,1.9,0.1,2.3,1c0.4,0.9-0.1,1.9-1,2.3l-6.4,2.6
			C137.8,67.5,136.8,67.1,136.4,66.2z"/>
		<path class="st0" d="M111.9,41.7c-0.9-0.4-1.3-1.4-1-2.3l2.6-6.4c0.4-0.9,1.4-1.3,2.3-1c0.9,0.4,1.3,1.4,1,2.3l-2.6,6.4
			C113.8,41.6,112.8,42,111.9,41.7z"/>
		<path class="st0" d="M60.1,51.5L48.3,39.7c-0.7-0.7-0.7-1.8,0-2.5s1.8-0.7,2.5,0L62.6,49c0.7,0.7,0.7,1.8,0,2.5
			C61.9,52.2,60.8,52.2,60.1,51.5z"/>
		<path class="st0" d="M138.3,129.8L126.6,118c-0.3-0.3-0.5-0.8-0.5-1.2c0-1.6,2-2.4,3.1-1.2l11.7,11.7c0.7,0.7,0.7,1.8,0,2.5
			C140.2,130.4,139,130.4,138.3,129.8z"/>
		<path class="st0" d="M158.2,85.2h-16.7c-1,0-1.8-0.8-1.8-1.8s0.8-1.8,1.8-1.8h16.7c1,0,1.8,0.8,1.8,1.8
			C160,84.5,159.2,85.2,158.2,85.2z"/>
		<path class="st0" d="M126.6,51.5c-0.7-0.7-0.7-1.8,0-2.5l11.8-11.8c0.7-0.7,1.8-0.7,2.5,0s0.7,1.8,0,2.5l-11.8,11.8
			C128.4,52.2,127.3,52.2,126.6,51.5z"/>
	</g>
</g>
<g>
	<path class="st1" d="M104.8,118.5C106.7,107.3,98,97,86.6,97c-3.1,0-5.9,0.7-8.5,2.1c-0.3-13.5-11.4-24.3-24.9-24.3
		c-14.7,0-25.8,12.6-24.9,26.2C14.5,96,0,106.1,0,120.8C0,132.5,9.5,142,21.2,142H112c7.1,0,12.9-5.7,12.9-12.9
		C124.9,118.7,113.2,112.7,104.8,118.5z"/>
</g>
</svg>
