<?xml version="1.0" encoding="utf-8"?>
<!-- Generator: Adobe Illustrator 25.3.1, SVG Export Plug-In . SVG Version: 6.00 Build 0)  -->
<svg version="1.1" id="Layer_1" xmlns="http://www.w3.org/2000/svg" xmlns:xlink="http://www.w3.org/1999/xlink" x="0px" y="0px"
	 width="160px" height="160px" viewBox="0 0 160 160" style="enable-background:new 0 0 160 160;" xml:space="preserve">
<style type="text/css">
	.st0{fill:#414F7F;}
	.st1{fill:#7988B2;}
</style>
<g>
	<path class="st0" d="M47.4,150.4c-4,8.4-14,12-22.4,8s-12-14-8-22.4s43-51.4,43-51.4S51.4,142,47.4,150.4z"/>
	<path class="st1" d="M35.5,56.9c-3.4,7.2-12.1,10.3-19.3,6.9c-7.3-3.5-10.4-12.1-7-19.4C12.7,37.2,46.4,0,46.4,0
		S38.9,49.6,35.5,56.9z"/>
	<path class="st0" d="M127.5,77.4c-2.8,6-9.9,8.5-15.9,5.7s-8.5-9.9-5.7-15.9s30.5-36.5,30.5-36.5S130.3,71.5,127.5,77.4z"/>
	<path class="st1" d="M143.8,125.3c-2.1,4.5-7.5,6.4-12,4.3c-4.5-2.1-6.4-7.5-4.3-12c2.1-4.5,23-27.5,23-27.5
		S145.9,120.8,143.8,125.3z"/>
	<path class="st1" d="M141.6,19.8c-0.9-0.4-1.3-1.5-0.8-2.4l5.2-11c0.4-0.9,1.5-1.3,2.4-0.8c0.9,0.4,1.3,1.5,0.8,2.4L144,19
		C143.6,19.8,142.5,20.2,141.6,19.8z"/>
	<path class="st0" d="M85.4,138.3c-0.9-0.4-1.3-1.5-0.8-2.4l11.1-23.5c0.4-0.9,1.5-1.3,2.4-0.8c0.9,0.4,1.3,1.5,0.8,2.4l-11.1,23.5
		C87.4,138.3,86.3,138.7,85.4,138.3z"/>
	<path class="st1" d="M11.7,111.6c-0.9-0.4-1.3-1.5-0.8-2.4l9.9-20.8c0.4-0.9,1.5-1.3,2.4-0.8c0.9,0.4,1.3,1.5,0.8,2.4l-10,20.7
		C13.6,111.6,12.5,112,11.7,111.6z"/>
	<path class="st1" d="M126.5,157.7c-0.9-0.4-1.3-1.5-0.8-2.4l3.5-7.5c0.4-0.9,1.5-1.3,2.4-0.8c0.9,0.4,1.3,1.5,0.8,2.4l-3.5,7.5
		C128.4,157.7,127.4,158.1,126.5,157.7z"/>
	<path class="st0" d="M76.8,49.1c-0.9-0.4-1.3-1.5-0.8-2.4l10.6-22.3c0.4-0.9,1.5-1.3,2.4-0.8c0.9,0.4,1.3,1.5,0.8,2.4L79.2,48.3
		C78.8,49.2,77.7,49.6,76.8,49.1z"/>
	<path class="st1" d="M141.2,79.5c-0.9-0.4-1.3-1.5-0.8-2.4l8.4-17.8c0.4-0.9,1.5-1.3,2.4-0.8c0.9,0.4,1.3,1.5,0.8,2.4l-8.4,17.8
		C143.2,79.6,142.1,79.9,141.2,79.5z"/>
</g>
</svg>
