<?xml version="1.0" encoding="utf-8"?>
<!-- Generator: Adobe Illustrator 25.3.1, SVG Export Plug-In . SVG Version: 6.00 Build 0)  -->
<svg version="1.1" id="Layer_1" xmlns="http://www.w3.org/2000/svg" xmlns:xlink="http://www.w3.org/1999/xlink" x="0px" y="0px"
	 width="160px" height="160px" viewBox="0 0 160 160" style="enable-background:new 0 0 160 160;" xml:space="preserve">
<style type="text/css">
	.st0{fill:#414F7F;}
	.st1{fill:#7988B2;}
</style>
<g>
	<path class="st0" d="M157.2,66.7c-5.5-8-16.7-9.2-23.7-2.9c1.5-15.5-10.7-28.6-26-28.6c-5.9,0-11.4,2-15.8,5.3
		C90.9,23.1,76.6,9.1,58.9,9.1C39,9.1,23.7,26.8,26.6,46.6C12.6,44.2,0,54.9,0,68.9c0,12.5,10.1,22.7,22.8,22.7h121.3
		C156.9,91.6,164.4,77.2,157.2,66.7z"/>
	<path class="st1" d="M22.4,124.8c-0.8-0.5-1.1-1.6-0.6-2.4l11.7-19.3c0.5-0.8,1.6-1.1,2.4-0.6c0.8,0.5,1.1,1.6,0.6,2.4l-11.7,19.3
		C24.4,125,23.3,125.3,22.4,124.8z"/>
	<path class="st0" d="M36,150.6c-0.8-0.5-1.1-1.6-0.6-2.4l27.5-45.1c0.5-0.8,1.6-1.1,2.4-0.6s1.1,1.6,0.6,2.4L38.4,150
		C37.9,150.9,36.8,151.1,36,150.6z"/>
	<path class="st1" d="M125.7,147.6c-0.8-0.5-1.1-1.6-0.6-2.4l10-16.4c0.5-0.8,1.6-1.1,2.4-0.6c0.8,0.5,1.1,1.6,0.6,2.4l-10,16.4
		C127.6,147.9,126.5,148.1,125.7,147.6z"/>
	<g>
		<path class="st1" d="M70.6,142c-0.8-0.5-1.1-1.6-0.6-2.4l14.1-23.2c0.5-0.8,1.6-1.1,2.4-0.6s1.1,1.6,0.6,2.4L73,141.4
			C72.5,142.2,71.4,142.5,70.6,142z"/>
	</g>
	<g>
		<path class="st0" d="M110.3,124.8c-0.8-0.5-1.1-1.6-0.6-2.4l11.7-19.3c0.5-0.8,1.6-1.1,2.4-0.6s1.1,1.6,0.6,2.4l-11.7,19.3
			C112.3,125,111.2,125.3,110.3,124.8z"/>
	</g>
</g>
</svg>
