<?xml version="1.0" encoding="utf-8"?>
<!-- Generator: Adobe Illustrator 25.3.1, SVG Export Plug-In . SVG Version: 6.00 Build 0)  -->
<svg version="1.1" id="Layer_1" xmlns="http://www.w3.org/2000/svg" xmlns:xlink="http://www.w3.org/1999/xlink" x="0px" y="0px"
	 width="160px" height="160px" viewBox="0 0 160 160" style="enable-background:new 0 0 160 160;" xml:space="preserve">
<style type="text/css">
	.st0{fill:#414F7F;}
	.st1{fill:#7988B2;}
	.st2{fill:#EAC62F;}
</style>
<circle class="st0" cx="125.7" cy="16.4" r="6"/>
<path class="st0" d="M41.2,88c0,3.3-2.7,6-6,6s-6-2.7-6-6s2.7-6,6-6C38.5,81.9,41.2,84.6,41.2,88z"/>
<path class="st1" d="M108.5,154c0,3.3-2.7,6-6,6s-6-2.7-6-6s2.7-6,6-6S108.5,150.6,108.5,154z"/>
<path class="st2" d="M152.3,88c0,2.7-2.2,4.8-4.8,4.8c-2.7,0-4.8-2.2-4.8-4.8c0-2.7,2.2-4.8,4.8-4.8C150.1,83.1,152.3,85.3,152.3,88
	z"/>
<path class="st0" d="M55.3,154c0,2.7-2.2,4.8-4.8,4.8s-4.8-2.2-4.8-4.8c0-2.7,2.2-4.8,4.8-4.8S55.3,151.3,55.3,154z"/>
<path class="st2" d="M60.1,61.8c0,2.7-2.2,4.8-4.8,4.8c-2.7,0-4.8-2.2-4.8-4.8c0-2.7,2.2-4.8,4.8-4.8C58,57,60.1,59.2,60.1,61.8z"/>
<path class="st1" d="M72.9,4.8c0,2.7-2.2,4.8-4.8,4.8c-2.7,0-4.8-2.2-4.8-4.8S65.4,0,68.1,0C70.7,0,72.9,2.2,72.9,4.8z"/>
<path class="st1" d="M30.4,31h-9.9V21c0-1-0.8-1.8-1.8-1.8S16.9,20,16.9,21v10H7c-1,0-1.8,0.8-1.8,1.8S6,34.6,7,34.6h9.9v9.9
	c0,1,0.8,1.8,1.8,1.8s1.8-0.8,1.8-1.8v-9.9h9.9c1,0,1.8-0.8,1.8-1.8C32.2,31.8,31.4,31,30.4,31z"/>
<path class="st0" d="M154.3,132.4h-9.9v-9.9c0-1-0.8-1.8-1.8-1.8s-1.8,0.8-1.8,1.8v9.9h-9.9c-1,0-1.8,0.8-1.8,1.8s0.8,1.8,1.8,1.8
	h9.9v9.9c0,1,0.8,1.8,1.8,1.8s1.8-0.8,1.8-1.8V136h9.9c1,0,1.8-0.8,1.8-1.8S155.3,132.4,154.3,132.4z"/>
<path class="st2" d="M18.2,131.4h-4.5v-4.5c0-1-0.8-1.8-1.8-1.8s-1.8,0.8-1.8,1.8v4.5H5.7c-1,0-1.8,0.8-1.8,1.8s0.8,1.8,1.8,1.8h4.5
	v4.5c0,1,0.8,1.8,1.8,1.8s1.8-0.8,1.8-1.8V135h4.5c1,0,1.8-0.8,1.8-1.8S19.2,131.4,18.2,131.4z"/>
<path class="st2" d="M128.9,81.9c0,32.8-26.6,59.5-59.5,59.5c-8.5,0-16.5-1.8-23.8-5c25.8-4.8,45.2-27.4,45.2-54.5
	c0-27.2-19.5-49.7-45.3-54.5C84.7,10.3,128.9,38.9,128.9,81.9z"/>
</svg>
