<?xml version="1.0" encoding="utf-8"?>
<!-- Generator: Adobe Illustrator 25.4.1, SVG Export Plug-In . SVG Version: 6.00 Build 0)  -->
<svg version="1.1" id="Layer_1" xmlns="http://www.w3.org/2000/svg" xmlns:xlink="http://www.w3.org/1999/xlink" x="0px" y="0px"
	 width="160px" height="160px" viewBox="0 0 160 160" style="enable-background:new 0 0 160 160;" xml:space="preserve">
<style type="text/css">
	.st0{fill:#414F7F;}
	.st1{fill:#7988B2;}
</style>
<path class="st0" d="M157.2,68c-5.5-8-16.7-9.2-23.7-2.9c1.5-15.5-10.7-28.6-26-28.6c-5.9,0-11.4,2-15.8,5.3
	c-0.8-17.4-15.1-31.4-32.8-31.4c-19.9,0-35.2,17.7-32.3,37.5C12.6,45.5,0,56.2,0,70.2c0,12.5,10.1,22.7,22.8,22.7h121.3
	C156.9,92.9,164.4,78.5,157.2,68z"/>
<g>
	<circle class="st1" cx="50" cy="112.6" r="0.8"/>
	<g>
		<path class="st1" d="M50,111.9C49.9,111.9,49.9,111.9,50,111.9l-0.1-1.8c0-0.1,0-0.1,0.1-0.1s0.1,0,0.1,0.1L50,111.9
			C50.1,111.9,50.1,111.9,50,111.9z"/>
		<path class="st1" d="M51.3,108.5C51.3,108.5,51.2,108.4,51.3,108.5l-1.1,0.6v-1.2c0-0.1,0-0.1-0.1-0.1s-0.1,0-0.1,0.1v1.1l-1-0.6
			h-0.1v0.1l1.1,0.6v0.7l-0.7-0.4h-0.1v0.1l0.9,0.5h0.1l0.9-0.5c0,0,0.1-0.1,0-0.1c0,0-0.1-0.1-0.1,0l-0.7,0.4v-0.7l1.1-0.6
			C51.3,108.6,51.3,108.5,51.3,108.5z"/>
	</g>
	<g>
		<path class="st1" d="M49.2,112.3l-1.4-0.8c0,0-0.1-0.1,0-0.1c0,0,0.1-0.1,0.1,0L49.2,112.3C49.3,112.2,49.4,112.3,49.2,112.3
			C49.4,112.3,49.3,112.3,49.2,112.3z"/>
		<path class="st1" d="M48,110.4C48,110.3,48,110.3,48,110.4c-0.2-0.1-0.2-0.1-0.2,0v0.8l-0.6-0.3v-1.3c0-0.1,0-0.1-0.1-0.1
			s-0.1,0-0.1,0.1v1.1l-1-0.6h-0.1v0.1l1,0.6l-1,0.6c0,0-0.1,0.1,0,0.1c0,0,0.1,0.1,0.1,0l1.1-0.6l0.6,0.3l-0.7,0.4
			c0,0-0.1,0.1,0,0.1c0,0,0.1,0.1,0.1,0l0.9-0.5l0,0l0,0C48,111.4,48,110.4,48,110.4z"/>
	</g>
	<g>
		<path class="st1" d="M47.8,114L47.8,114l1.4-0.9h0.1v0.1L47.8,114L47.8,114z"/>
		<path class="st1" d="M47.9,113.8l-0.9-0.5h-0.1v0.1l0.7,0.4l-0.6,0.3l-1.1-0.6h-0.1v0.1l1,0.6l-1,0.6c-0.1,0.1-0.1,0.2,0.1,0.2
			c0,0,0,0,1.1-0.6v1.1c0,0.1,0,0.1,0.1,0.1s0.1,0,0.1-0.1v-1.3l0.6-0.3v0.8c0,0.1,0,0.1,0.1,0.1s0.1,0,0.1-0.1L47.9,113.8
			C48,113.9,47.9,113.8,47.9,113.8z"/>
	</g>
	<g>
		<path class="st1" d="M50,115.3C49.9,115.3,49.9,115.3,50,115.3l-0.1-1.8c0-0.1,0-0.1,0.1-0.1s0.1,0,0.1,0.1L50,115.3
			C50.1,115.2,50.1,115.3,50,115.3z"/>
		<path class="st1" d="M51.2,116.7l-1.1-0.6v-0.7l0.7,0.4c0,0,0,0,0.1,0s0.1-0.1,0.1-0.2l-0.9-0.5H50l-0.9,0.5c0,0-0.1,0.1,0,0.1
			c0,0,0.1,0.1,0.1,0l0.7-0.4v0.7l-1.1,0.6c0,0-0.1,0.1,0,0.1c0,0,0.1,0.1,0.1,0l1-0.6v1.1c0,0.1,0,0.1,0.1,0.1s0.1,0,0.1-0.1v-1.1
			l1,0.6H51.2C51.3,116.8,51.3,116.7,51.2,116.7z"/>
	</g>
	<g>
		<path class="st1" d="M52.1,114l-1.4-0.8c0,0-0.1-0.1,0-0.1c0,0,0.1-0.1,0.1,0L52.1,114C52.2,113.9,52.3,114,52.1,114
			C52.3,114,52.2,114,52.1,114z"/>
		<path class="st1" d="M54.2,114.9l-1-0.6l1-0.6c0,0,0.1-0.1,0-0.1c0,0-0.1-0.1-0.1,0l-1.1,0.6l-0.6-0.3l0.7-0.4c0,0,0.1-0.1,0-0.1
			c0,0-0.1-0.1-0.1,0l-0.9,0.5l0,0c0,0,0,0,0,1.1c0,0.1,0,0.1,0.1,0.1s0.1,0,0.1-0.1v-0.8l0.6,0.3v1.3c0,0.1,0,0.1,0.1,0.1
			s0.1,0,0.1-0.1v-1.1l1,0.6h0.1C54.3,115,54.3,115,54.2,114.9z"/>
	</g>
	<g>
		<path class="st1" d="M50.7,112.3L50.7,112.3l1.4-0.9h0.1v0.1L50.7,112.3C50.7,112.3,50.7,112.3,50.7,112.3z"/>
		<path class="st1" d="M54.2,111.5l-1-0.6l1-0.6c0,0,0.1-0.1,0-0.1c0,0-0.1-0.1-0.1,0l-1,0.6v-1.2c0-0.1,0-0.1-0.1-0.1
			s-0.1,0-0.1,0.1v1.3l-0.6,0.3v-0.8c0-0.1,0-0.1-0.1-0.1s-0.1,0-0.1,0.1c0,1,0,1,0,1.1c0,0,0,0,0.9,0.5h0.1v-0.1l-0.7-0.4l0.6-0.3
			l1.1,0.6h0.1C54.3,111.6,54.3,111.5,54.2,111.5z"/>
	</g>
</g>
<g>
	<circle class="st0" cx="20.1" cy="112.6" r="0.8"/>
	<g>
		<path class="st0" d="M20.1,111.9C20,111.9,20,111.9,20.1,111.9l-0.1-1.8c0-0.1,0-0.1,0.1-0.1s0.1,0,0.1,0.1L20.1,111.9
			C20.2,111.9,20.2,111.9,20.1,111.9z"/>
		<path class="st0" d="M21.4,108.5C21.4,108.5,21.3,108.4,21.4,108.5l-1.1,0.6v-1.2c0-0.1,0-0.1-0.1-0.1s-0.1,0-0.1,0.1v1.1l-1-0.6
			H19v0.1l1.1,0.6v0.7l-0.7-0.4h-0.1v0.1l0.9,0.5h0.1l0.9-0.5c0,0,0.1-0.1,0-0.1c0,0-0.1-0.1-0.1,0l-0.7,0.4v-0.7l1.1-0.6
			C21.4,108.6,21.4,108.5,21.4,108.5z"/>
	</g>
	<g>
		<path class="st0" d="M19.3,112.3l-1.4-0.8c0,0-0.1-0.1,0-0.1c0,0,0.1-0.1,0.1,0L19.3,112.3C19.4,112.2,19.5,112.3,19.3,112.3
			C19.5,112.3,19.4,112.3,19.3,112.3z"/>
		<path class="st0" d="M18.1,110.4C18.1,110.3,18.1,110.3,18.1,110.4c-0.2-0.1-0.2-0.1-0.2,0v0.8l-0.6-0.3v-1.3c0-0.1,0-0.1-0.1-0.1
			s-0.1,0-0.1,0.1v1.1l-1-0.6H16v0.1l1,0.6l-1,0.6c0,0-0.1,0.1,0,0.1c0,0,0.1,0.1,0.1,0l1.1-0.6l0.6,0.3l-0.7,0.4c0,0-0.1,0.1,0,0.1
			c0,0,0.1,0.1,0.1,0l0.9-0.5l0,0l0,0C18.1,111.4,18.1,110.4,18.1,110.4z"/>
	</g>
	<g>
		<path class="st0" d="M17.9,114L17.9,114l1.4-0.9h0.1v0.1L17.9,114L17.9,114z"/>
		<path class="st0" d="M18,113.8l-0.9-0.5H17v0.1l0.7,0.4l-0.6,0.3l-1.1-0.6h-0.1v0.1l1,0.6l-1,0.6c-0.1,0.1-0.1,0.2,0.1,0.2
			c0,0,0,0,1.1-0.6v1.1c0,0.1,0,0.1,0.1,0.1s0.1,0,0.1-0.1v-1.3l0.6-0.3v0.8c0,0.1,0,0.1,0.1,0.1s0.1,0,0.1-0.1L18,113.8
			C18.1,113.9,18,113.8,18,113.8z"/>
	</g>
	<g>
		<path class="st0" d="M20.1,115.3C20,115.3,20,115.3,20.1,115.3l-0.1-1.8c0-0.1,0-0.1,0.1-0.1s0.1,0,0.1,0.1L20.1,115.3
			C20.2,115.2,20.2,115.3,20.1,115.3z"/>
		<path class="st0" d="M21.3,116.7l-1.1-0.6v-0.7l0.7,0.4c0,0,0,0,0.1,0s0.1-0.1,0.1-0.2l-0.9-0.5h-0.1l-0.9,0.5c0,0-0.1,0.1,0,0.1
			c0,0,0.1,0.1,0.1,0l0.7-0.4v0.7l-1.1,0.6c0,0-0.1,0.1,0,0.1c0,0,0.1,0.1,0.1,0l1-0.6v1.1c0,0.1,0,0.1,0.1,0.1s0.1,0,0.1-0.1v-1.1
			l1,0.6H21.3C21.4,116.8,21.4,116.7,21.3,116.7z"/>
	</g>
	<g>
		<path class="st0" d="M22.2,114l-1.4-0.8c0,0-0.1-0.1,0-0.1c0,0,0.1-0.1,0.1,0L22.2,114C22.3,113.9,22.4,114,22.2,114
			C22.4,114,22.3,114,22.2,114z"/>
		<path class="st0" d="M24.3,114.9l-1-0.6l1-0.6c0,0,0.1-0.1,0-0.1c0,0-0.1-0.1-0.1,0l-1.1,0.6l-0.6-0.3l0.7-0.4c0,0,0.1-0.1,0-0.1
			c0,0-0.1-0.1-0.1,0l-0.9,0.5l0,0c0,0,0,0,0,1.1c0,0.1,0,0.1,0.1,0.1s0.1,0,0.1-0.1v-0.8l0.6,0.3v1.3c0,0.1,0,0.1,0.1,0.1
			s0.1,0,0.1-0.1v-1.1l1,0.6h0.1C24.4,115,24.4,115,24.3,114.9z"/>
	</g>
	<g>
		<path class="st0" d="M20.8,112.3L20.8,112.3l1.4-0.9h0.1v0.1L20.8,112.3C20.8,112.3,20.8,112.3,20.8,112.3z"/>
		<path class="st0" d="M24.3,111.5l-1-0.6l1-0.6c0,0,0.1-0.1,0-0.1c0,0-0.1-0.1-0.1,0l-1,0.6v-1.2c0-0.1,0-0.1-0.1-0.1
			s-0.1,0-0.1,0.1v1.3l-0.6,0.3v-0.8c0-0.1,0-0.1-0.1-0.1s-0.1,0-0.1,0.1c0,1,0,1,0,1.1c0,0,0,0,0.9,0.5h0.1v-0.1l-0.7-0.4l0.6-0.3
			l1.1,0.6h0.1C24.4,111.6,24.4,111.5,24.3,111.5z"/>
	</g>
</g>
<g>
	<circle class="st0" cx="80" cy="112.6" r="0.8"/>
	<g>
		<path class="st0" d="M80,111.9C79.9,111.9,79.9,111.9,80,111.9l-0.1-1.8c0-0.1,0-0.1,0.1-0.1s0.1,0,0.1,0.1L80,111.9
			C80.1,111.9,80.1,111.9,80,111.9z"/>
		<path class="st0" d="M81.3,108.5C81.3,108.5,81.2,108.4,81.3,108.5l-1.1,0.6v-1.2c0-0.1,0-0.1-0.1-0.1s-0.1,0-0.1,0.1v1.1l-1-0.6
			h-0.1v0.1l1.1,0.6v0.7l-0.7-0.4h-0.1v0.1l0.9,0.5h0.1l0.9-0.5c0,0,0.1-0.1,0-0.1c0,0-0.1-0.1-0.1,0l-0.7,0.4v-0.7l1.1-0.6
			C81.3,108.6,81.3,108.5,81.3,108.5z"/>
	</g>
	<g>
		<path class="st0" d="M79.2,112.3l-1.4-0.8c0,0-0.1-0.1,0-0.1c0,0,0.1-0.1,0.1,0L79.2,112.3C79.3,112.2,79.4,112.3,79.2,112.3
			C79.4,112.3,79.3,112.3,79.2,112.3z"/>
		<path class="st0" d="M78,110.4C78,110.3,78,110.3,78,110.4c-0.2-0.1-0.2-0.1-0.2,0v0.8l-0.6-0.3v-1.3c0-0.1,0-0.1-0.1-0.1
			s-0.1,0-0.1,0.1v1.1l-1-0.6h-0.1v0.1l1,0.6l-1,0.6c0,0-0.1,0.1,0,0.1c0,0,0.1,0.1,0.1,0l1.1-0.6l0.6,0.3l-0.7,0.4
			c0,0-0.1,0.1,0,0.1c0,0,0.1,0.1,0.1,0l0.9-0.5l0,0l0,0C78,111.4,78,110.4,78,110.4z"/>
	</g>
	<g>
		<path class="st0" d="M77.8,114L77.8,114l1.4-0.9h0.1v0.1L77.8,114L77.8,114z"/>
		<path class="st0" d="M77.9,113.8l-0.9-0.5h-0.1v0.1l0.7,0.4l-0.6,0.3l-1.1-0.6h-0.1v0.1l1,0.6l-1,0.6c-0.1,0.1-0.1,0.2,0.1,0.2
			c0,0,0,0,1.1-0.6v1.1c0,0.1,0,0.1,0.1,0.1s0.1,0,0.1-0.1v-1.3L77.9,113.8l-0.1,0.9c0,0.1,0,0.1,0.1,0.1s0.1,0,0.1-0.1L77.9,113.8
			C78,113.9,77.9,113.8,77.9,113.8z"/>
	</g>
	<g>
		<path class="st0" d="M80,115.3C79.9,115.3,79.9,115.3,80,115.3l-0.1-1.8c0-0.1,0-0.1,0.1-0.1s0.1,0,0.1,0.1L80,115.3
			C80.1,115.2,80.1,115.3,80,115.3z"/>
		<path class="st0" d="M81.2,116.7l-1.1-0.6v-0.7l0.7,0.4c0,0,0,0,0.1,0s0.1-0.1,0.1-0.2l-0.9-0.5H80l-0.9,0.5c0,0-0.1,0.1,0,0.1
			c0,0,0.1,0.1,0.1,0l0.7-0.4v0.7l-1.1,0.6c0,0-0.1,0.1,0,0.1c0,0,0.1,0.1,0.1,0l1-0.6v1.1c0,0.1,0,0.1,0.1,0.1s0.1,0,0.1-0.1v-1.1
			l1,0.6H81.2C81.3,116.8,81.3,116.7,81.2,116.7z"/>
	</g>
	<g>
		<path class="st0" d="M82.1,114l-1.4-0.8c0,0-0.1-0.1,0-0.1c0,0,0.1-0.1,0.1,0L82.1,114C82.2,113.9,82.3,114,82.1,114
			C82.3,114,82.2,114,82.1,114z"/>
		<path class="st0" d="M84.2,114.9l-1-0.6l1-0.6c0,0,0.1-0.1,0-0.1c0,0-0.1-0.1-0.1,0l-1.1,0.6l-0.6-0.3l0.7-0.4c0,0,0.1-0.1,0-0.1
			c0,0-0.1-0.1-0.1,0l-0.9,0.5l0,0c0,0,0,0,0,1.1c0,0.1,0,0.1,0.1,0.1s0.1,0,0.1-0.1v-0.8l0.6,0.3v1.3c0,0.1,0,0.1,0.1,0.1
			s0.1,0,0.1-0.1v-1.1l1,0.6h0.1C84.3,115,84.3,115,84.2,114.9z"/>
	</g>
	<g>
		<path class="st0" d="M80.7,112.3L80.7,112.3l1.4-0.9h0.1v0.1L80.7,112.3C80.7,112.3,80.7,112.3,80.7,112.3z"/>
		<path class="st0" d="M84.2,111.5l-1-0.6l1-0.6c0,0,0.1-0.1,0-0.1c0,0-0.1-0.1-0.1,0l-1,0.6v-1.2c0-0.1,0-0.1-0.1-0.1
			s-0.1,0-0.1,0.1v1.3l-0.6,0.3v-0.8c0-0.1,0-0.1-0.1-0.1s-0.1,0-0.1,0.1c0,1,0,1,0,1.1c0,0,0,0,0.9,0.5h0.1v-0.1l-0.7-0.4l0.6-0.3
			l1.1,0.6h0.1C84.3,111.6,84.3,111.5,84.2,111.5z"/>
	</g>
</g>
<g>
	<circle class="st1" cx="110" cy="112.7" r="0.8"/>
	<g>
		<path class="st1" d="M110,112C109.9,112,109.9,112,110,112l-0.1-1.8c0-0.1,0-0.1,0.1-0.1s0.1,0,0.1,0.1L110,112L110,112z"/>
		<path class="st1" d="M111.2,108.5C111.2,108.5,111.1,108.4,111.2,108.5l-1.1,0.6v-1.2c0-0.1,0-0.1-0.1-0.1s-0.1,0-0.1,0.1v1.1
			l-1-0.6h-0.1v0.1l1.1,0.6v0.7l-0.7-0.4h-0.1v0.1l0.9,0.5h0.1l0.9-0.5c0,0,0.1-0.1,0-0.1c0,0-0.1-0.1-0.1,0l-0.7,0.4v-0.7l1.1-0.6
			C111.2,108.7,111.3,108.6,111.2,108.5z"/>
	</g>
	<g>
		<path class="st1" d="M109.2,112.4l-1.4-0.8c0,0-0.1-0.1,0-0.1c0,0,0.1-0.1,0.1,0L109.2,112.4C109.3,112.3,109.4,112.4,109.2,112.4
			C109.3,112.4,109.3,112.4,109.2,112.4z"/>
		<path class="st1" d="M107.9,110.5C107.9,110.4,107.9,110.4,107.9,110.5c-0.2-0.1-0.2-0.1-0.2,0v0.8l-0.6-0.3v-1.3
			c0-0.1,0-0.1-0.1-0.1s-0.1,0-0.1,0.1v1.1l-1-0.6h-0.1v0.1l1,0.6l-1,0.6c0,0-0.1,0.1,0,0.1c0,0,0.1,0.1,0.1,0l1.1-0.6l0.6,0.3
			l-0.7,0.4c0,0-0.1,0.1,0,0.1c0,0,0.1,0.1,0.1,0l0.9-0.5l0,0l0,0C107.9,111.5,107.9,110.5,107.9,110.5z"/>
	</g>
	<g>
		<path class="st1" d="M107.7,114L107.7,114l1.4-0.9h0.1v0.1L107.7,114C107.8,114.1,107.7,114.1,107.7,114z"/>
		<path class="st1" d="M107.9,113.9l-0.9-0.5h-0.1v0.1l0.7,0.4l-0.6,0.3l-1.1-0.6h-0.1v0.1l1,0.6l-1,0.6c-0.1,0.1-0.1,0.2,0.1,0.2
			c0,0,0,0,1.1-0.6v1.1c0,0.1,0,0.1,0.1,0.1s0.1,0,0.1-0.1v-1.3l0.6-0.3v0.8c0,0.1,0,0.1,0.1,0.1s0.1,0,0.1-0.1L107.9,113.9
			L107.9,113.9z"/>
	</g>
	<g>
		<path class="st1" d="M110,115.3C109.9,115.3,109.9,115.3,110,115.3l-0.1-1.8c0-0.1,0-0.1,0.1-0.1s0.1,0,0.1,0.1L110,115.3
			C110.1,115.3,110,115.3,110,115.3z"/>
		<path class="st1" d="M111.2,116.7l-1.1-0.6v-0.7l0.7,0.4c0,0,0,0,0.1,0s0.1-0.1,0.1-0.2l-0.9-0.5H110l-0.9,0.5c0,0-0.1,0.1,0,0.1
			c0,0,0.1,0.1,0.1,0l0.7-0.4v0.7l-1.1,0.6c0,0-0.1,0.1,0,0.1c0,0,0.1,0.1,0.1,0l1-0.6v1.1c0,0.1,0,0.1,0.1,0.1s0.1,0,0.1-0.1v-1.1
			l1,0.6L111.2,116.7C111.3,116.8,111.2,116.8,111.2,116.7z"/>
	</g>
	<g>
		<path class="st1" d="M112.1,114.1l-1.4-0.8c0,0-0.1-0.1,0-0.1c0,0,0.1-0.1,0.1,0L112.1,114.1C112.2,114,112.3,114.1,112.1,114.1
			L112.1,114.1z"/>
		<path class="st1" d="M114.2,115l-1-0.6l1-0.6c0,0,0.1-0.1,0-0.1c0,0-0.1-0.1-0.1,0l-1.1,0.6l-0.6-0.3l0.7-0.4c0,0,0.1-0.1,0-0.1
			c0,0-0.1-0.1-0.1,0l-0.9,0.5l0,0c0,0,0,0,0,1.1c0,0.1,0,0.1,0.1,0.1s0.1,0,0.1-0.1v-0.8l0.6,0.3v1.3c0,0.1,0,0.1,0.1,0.1
			s0.1,0,0.1-0.1v-1.1l1,0.6h0.1C114.2,115.1,114.2,115,114.2,115z"/>
	</g>
	<g>
		<path class="st1" d="M110.6,112.4L110.6,112.4l1.4-0.9h0.1v0.1L110.6,112.4L110.6,112.4z"/>
		<path class="st1" d="M114.2,111.6l-1-0.6l1-0.6c0,0,0.1-0.1,0-0.1c0,0-0.1-0.1-0.1,0l-1,0.6v-1.2c0-0.1,0-0.1-0.1-0.1
			s-0.1,0-0.1,0.1v1.3l-0.6,0.3v-0.8c0-0.1,0-0.1-0.1-0.1s-0.1,0-0.1,0.1c0,1,0,1,0,1.1c0,0,0,0,0.9,0.5h0.1V112l-0.7-0.4l0.6-0.3
			l1.1,0.6h0.1C114.2,111.7,114.2,111.6,114.2,111.6z"/>
	</g>
</g>
<g>
	<circle class="st0" cx="139.9" cy="112.7" r="0.8"/>
	<g>
		<path class="st0" d="M139.9,112c-0.1,0-0.1,0-0.1-0.1v-1.7c0-0.1,0-0.1,0.1-0.1c0.1,0,0.1,0,0.1,0.1L139.9,112L139.9,112z"/>
		<path class="st0" d="M141.1,108.5c0,0-0.1-0.1-0.1,0l-1,0.6v-1.2c0-0.1,0-0.1-0.1-0.1c-0.1,0-0.1,0-0.1,0.1v1.1l-1-0.6h-0.1v0.1
			l1.1,0.6v0.7l-0.7-0.4H139v0.1l0.9,0.5h0.1l0.9-0.5c0,0,0.1-0.1,0-0.1c0,0-0.1-0.1-0.1,0l-0.7,0.4v-0.7l1.1-0.6
			C141.1,108.7,141.2,108.6,141.1,108.5z"/>
	</g>
	<g>
		<path class="st0" d="M139.1,112.4l-1.4-0.8c0,0-0.1-0.1,0-0.1c0,0,0.1-0.1,0.1,0L139.1,112.4C139.2,112.3,139.3,112.4,139.1,112.4
			C139.2,112.4,139.2,112.4,139.1,112.4z"/>
		<path class="st0" d="M137.8,110.5C137.8,110.4,137.8,110.4,137.8,110.5c-0.2-0.1-0.2-0.1-0.2,0v0.8L137,111v-1.3
			c0-0.1,0-0.1-0.1-0.1c-0.1,0-0.1,0-0.1,0.1v1.1l-1-0.6h-0.1v0.1l1,0.6l-1,0.6c0,0-0.1,0.1,0,0.1c0,0,0.1,0.1,0.1,0l1.1-0.6
			l0.6,0.3l-0.7,0.4c0,0-0.1,0.1,0,0.1c0,0,0.1,0.1,0.1,0l0.9-0.5l0,0l0,0C137.8,111.5,137.8,110.5,137.8,110.5z"/>
	</g>
	<g>
		<path class="st0" d="M137.6,114L137.6,114l1.4-0.9h0.1v0.1L137.6,114C137.7,114.1,137.6,114.1,137.6,114z"/>
		<path class="st0" d="M137.8,113.9l-0.9-0.5h-0.1v0.1l0.7,0.4l-0.6,0.3l-1.1-0.6h-0.1v0.1l1,0.6l-1,0.6c-0.1,0.1-0.1,0.2,0.1,0.2
			c0,0,0,0,1.1-0.6v1.1c0,0.1,0,0.1,0.1,0.1c0.1,0,0.1,0,0.1-0.1v-1.3l0.6-0.3v0.8c0,0.1,0,0.1,0.1,0.1c0.1,0,0.1,0,0.1-0.1
			L137.8,113.9L137.8,113.9z"/>
	</g>
	<g>
		<path class="st0" d="M139.9,115.3c-0.1,0-0.1,0-0.1-0.1v-1.7c0-0.1,0-0.1,0.1-0.1c0.1,0,0.1,0,0.1,0.1L139.9,115.3
			C140,115.3,139.9,115.3,139.9,115.3z"/>
		<path class="st0" d="M141.1,116.7l-1.1-0.6v-0.7l0.7,0.4c0,0,0,0,0.1,0c0.1,0,0.1-0.1,0.1-0.2l-0.9-0.5h-0.1l-0.9,0.5
			c0,0-0.1,0.1,0,0.1c0,0,0.1,0.1,0.1,0l0.7-0.4v0.7l-1.1,0.6c0,0-0.1,0.1,0,0.1c0,0,0.1,0.1,0.1,0l1-0.6v1.1c0,0.1,0,0.1,0.1,0.1
			c0.1,0,0.1,0,0.1-0.1v-1.1l1,0.6L141.1,116.7C141.2,116.8,141.1,116.8,141.1,116.7z"/>
	</g>
	<g>
		<path class="st0" d="M142,114.1l-1.4-0.8c0,0-0.1-0.1,0-0.1c0,0,0.1-0.1,0.1,0l1.4,0.8c0,0,0.1,0.1,0,0.1H142z"/>
		<path class="st0" d="M144.1,115l-1-0.6l1-0.6c0,0,0.1-0.1,0-0.1c0,0-0.1-0.1-0.1,0l-1.1,0.6l-0.6-0.3l0.7-0.4c0,0,0.1-0.1,0-0.1
			c0,0-0.1-0.1-0.1,0L142,114l0,0c0,0,0,0,0,1.1c0,0.1,0,0.1,0.1,0.1c0.1,0,0.1,0,0.1-0.1v-0.8l0.6,0.3v1.3c0,0.1,0,0.1,0.1,0.1
			c0.1,0,0.1,0,0.1-0.1v-1.1l1,0.6h0.1C144.1,115.1,144.1,115,144.1,115z"/>
	</g>
	<g>
		<path class="st0" d="M140.5,112.4L140.5,112.4l1.4-0.9h0.1v0.1l-1.4,0.8H140.5z"/>
		<path class="st0" d="M144.1,111.6l-1-0.6l1-0.6c0,0,0.1-0.1,0-0.1c0,0-0.1-0.1-0.1,0l-1,0.6v-1.2c0-0.1,0-0.1-0.1-0.1
			c-0.1,0-0.1,0-0.1,0.1v1.3l-0.6,0.3v-0.8c0-0.1,0-0.1-0.1-0.1c-0.1,0-0.1,0-0.1,0.1c0,1,0,1,0,1.1c0,0,0,0,0.9,0.5h0.1V112
			l-0.7-0.4l0.6-0.3l1.1,0.6h0.1C144.1,111.7,144.1,111.6,144.1,111.6z"/>
	</g>
</g>
<g>
	<circle class="st1" cx="20.1" cy="144.9" r="0.8"/>
	<g>
		<path class="st1" d="M20.1,144.2c-0.1,0-0.1,0-0.1-0.1v-1.7c0-0.1,0-0.1,0.1-0.1s0.1,0,0.1,0.1v1.7
			C20.2,144.2,20.2,144.2,20.1,144.2z"/>
		<path class="st1" d="M21.4,140.8C21.4,140.8,21.3,140.7,21.4,140.8l-1.1,0.6v-1.2c0-0.1,0-0.1-0.1-0.1s-0.1,0-0.1,0.1v1.1l-1-0.6
			H19v0.1l1.1,0.6v0.7l-0.7-0.4h-0.1v0.1l0.9,0.5h0.1l0.9-0.5c0,0,0.1-0.1,0-0.1c0,0-0.1-0.1-0.1,0l-0.7,0.4v-0.7l1.1-0.6
			C21.4,140.9,21.4,140.8,21.4,140.8z"/>
	</g>
	<g>
		<path class="st1" d="M19.3,144.6l-1.4-0.8c0,0-0.1-0.1,0-0.1c0,0,0.1-0.1,0.1,0L19.3,144.6C19.4,144.5,19.5,144.6,19.3,144.6
			C19.5,144.6,19.4,144.6,19.3,144.6z"/>
		<path class="st1" d="M18.1,142.7c0-0.1,0-0.1-0.1-0.1s-0.1,0-0.1,0.1v0.8l-0.6-0.3v-1.3c0-0.1,0-0.1-0.1-0.1s-0.1,0-0.1,0.1v1.1
			l-1-0.6H16v0.1l1,0.6l-1,0.6c0,0-0.1,0.1,0,0.1c0,0,0.1,0.1,0.1,0l1.1-0.6l0.6,0.3l-0.7,0.4c0,0-0.1,0.1,0,0.1c0,0,0.1,0.1,0.1,0
			l0.9-0.5l0,0l0,0C18.1,143.7,18.1,142.7,18.1,142.7z"/>
	</g>
	<g>
		<path class="st1" d="M17.9,146.3v-0.1l1.4-0.8h0.1v0.1L17.9,146.3L17.9,146.3z"/>
		<path class="st1" d="M18,146.1l-0.9-0.5H17v0.1l0.7,0.4l-0.6,0.3l-1.1-0.6h-0.1v0.1l1,0.6l-1,0.6c-0.1,0.1-0.1,0.2,0.1,0.2
			c0,0,0,0,1.1-0.6v1.1c0,0.1,0,0.1,0.1,0.1s0.1,0,0.1-0.1v-1.3l0.6-0.3v0.8c0,0.1,0,0.1,0.1,0.1s0.1,0,0.1-0.1L18,146.1
			C18.1,146.2,18,146.1,18,146.1z"/>
	</g>
	<g>
		<path class="st1" d="M20.1,147.6C20,147.6,20,147.6,20.1,147.6l-0.1-1.8c0-0.1,0-0.1,0.1-0.1s0.1,0,0.1,0.1L20.1,147.6
			C20.2,147.5,20.2,147.6,20.1,147.6z"/>
		<path class="st1" d="M21.3,149l-1.1-0.6v-0.7l0.7,0.4c0,0,0,0,0.1,0s0.1-0.1,0.1-0.2l-0.9-0.5h-0.1l-0.9,0.5c0,0-0.1,0.1,0,0.1
			c0,0,0.1,0.1,0.1,0l0.7-0.4v0.7l-1.1,0.6c0,0-0.1,0.1,0,0.1c0,0,0.1,0.1,0.1,0l1-0.6v1.1c0,0.1,0,0.1,0.1,0.1s0.1,0,0.1-0.1v-1.1
			l1,0.6H21.3C21.4,149.1,21.4,149,21.3,149z"/>
	</g>
	<g>
		<path class="st1" d="M22.2,146.3l-1.4-0.8c0,0-0.1-0.1,0-0.1c0,0,0.1-0.1,0.1,0l1.4,0.8C22.3,146.2,22.4,146.3,22.2,146.3
			C22.4,146.3,22.3,146.3,22.2,146.3z"/>
		<path class="st1" d="M24.3,147.2l-1-0.6l1-0.6c0,0,0.1-0.1,0-0.1c0,0-0.1-0.1-0.1,0l-1.1,0.6l-0.6-0.3l0.7-0.4c0,0,0.1-0.1,0-0.1
			c0,0-0.1-0.1-0.1,0l-0.9,0.5l0,0c0,0,0,0,0,1.1c0,0.1,0,0.1,0.1,0.1s0.1,0,0.1-0.1v-0.8l0.6,0.3v1.3c0,0.1,0,0.1,0.1,0.1
			s0.1,0,0.1-0.1V147l1,0.6h0.1C24.4,147.3,24.4,147.3,24.3,147.2z"/>
	</g>
	<g>
		<path class="st1" d="M20.8,144.6L20.8,144.6l1.4-0.9h0.1v0.1L20.8,144.6C20.8,144.6,20.8,144.6,20.8,144.6z"/>
		<path class="st1" d="M24.3,143.8l-1-0.6l1-0.6c0,0,0.1-0.1,0-0.1c0,0-0.1-0.1-0.1,0l-1,0.6v-1.2c0-0.1,0-0.1-0.1-0.1
			s-0.1,0-0.1,0.1v1.3l-0.6,0.3v-0.8c0-0.1,0-0.1-0.1-0.1s-0.1,0-0.1,0.1c0,1,0,1,0,1.1c0,0,0,0,0.9,0.5h0.1v-0.1l-0.7-0.4l0.6-0.3
			l1.1,0.6h0.1C24.4,143.9,24.4,143.8,24.3,143.8z"/>
	</g>
</g>
<g>
	<circle class="st0" cx="80" cy="144.9" r="0.8"/>
	<g>
		<path class="st0" d="M80,144.2c-0.1,0-0.1,0-0.1-0.1v-1.7c0-0.1,0-0.1,0.1-0.1s0.1,0,0.1,0.1v1.7C80.1,144.2,80.1,144.2,80,144.2z
			"/>
		<path class="st0" d="M81.3,140.8C81.3,140.8,81.2,140.7,81.3,140.8l-1.1,0.6v-1.2c0-0.1,0-0.1-0.1-0.1s-0.1,0-0.1,0.1v1.1l-1-0.6
			h-0.1v0.1l1.1,0.6v0.7l-0.7-0.4h-0.1v0.1l0.9,0.5h0.1l0.9-0.5c0,0,0.1-0.1,0-0.1c0,0-0.1-0.1-0.1,0l-0.7,0.4v-0.7l1.1-0.6
			C81.3,140.9,81.3,140.8,81.3,140.8z"/>
	</g>
	<g>
		<path class="st0" d="M79.2,144.6l-1.4-0.8c0,0-0.1-0.1,0-0.1c0,0,0.1-0.1,0.1,0L79.2,144.6C79.3,144.5,79.4,144.6,79.2,144.6
			C79.4,144.6,79.3,144.6,79.2,144.6z"/>
		<path class="st0" d="M78,142.7c0-0.1,0-0.1-0.1-0.1s-0.1,0-0.1,0.1v0.8l-0.6-0.3v-1.3c0-0.1,0-0.1-0.1-0.1s-0.1,0-0.1,0.1v1.1
			l-1-0.6h-0.1v0.1l1,0.6l-1,0.6c0,0-0.1,0.1,0,0.1c0,0,0.1,0.1,0.1,0l1.1-0.6l0.6,0.3l-0.7,0.4c0,0-0.1,0.1,0,0.1
			c0,0,0.1,0.1,0.1,0l0.9-0.5l0,0l0,0C78,143.7,78,142.7,78,142.7z"/>
	</g>
	<g>
		<path class="st0" d="M77.8,146.3v-0.1l1.4-0.8h0.1v0.1L77.8,146.3L77.8,146.3z"/>
		<path class="st0" d="M77.9,146.1l-0.9-0.5h-0.1v0.1l0.7,0.4l-0.6,0.3l-1.1-0.6h-0.1v0.1l1,0.6l-1,0.6c-0.1,0.1-0.1,0.2,0.1,0.2
			c0,0,0,0,1.1-0.6v1.1c0,0.1,0,0.1,0.1,0.1s0.1,0,0.1-0.1v-1.3L77.9,146.1l-0.1,0.9c0,0.1,0,0.1,0.1,0.1s0.1,0,0.1-0.1L77.9,146.1
			C78,146.2,77.9,146.1,77.9,146.1z"/>
	</g>
	<g>
		<path class="st0" d="M80,147.6C79.9,147.6,79.9,147.6,80,147.6l-0.1-1.8c0-0.1,0-0.1,0.1-0.1s0.1,0,0.1,0.1L80,147.6
			C80.1,147.5,80.1,147.6,80,147.6z"/>
		<path class="st0" d="M81.2,149l-1.1-0.6v-0.7l0.7,0.4c0,0,0,0,0.1,0s0.1-0.1,0.1-0.2l-0.9-0.5H80l-0.9,0.5c0,0-0.1,0.1,0,0.1
			c0,0,0.1,0.1,0.1,0l0.7-0.4v0.7l-1.1,0.6c0,0-0.1,0.1,0,0.1c0,0,0.1,0.1,0.1,0l1-0.6v1.1c0,0.1,0,0.1,0.1,0.1s0.1,0,0.1-0.1v-1.1
			l1,0.6H81.2C81.3,149.1,81.3,149,81.2,149z"/>
	</g>
	<g>
		<path class="st0" d="M82.1,146.3l-1.4-0.8c0,0-0.1-0.1,0-0.1c0,0,0.1-0.1,0.1,0l1.4,0.8C82.2,146.2,82.3,146.3,82.1,146.3
			C82.3,146.3,82.2,146.3,82.1,146.3z"/>
		<path class="st0" d="M84.2,147.2l-1-0.6l1-0.6c0,0,0.1-0.1,0-0.1c0,0-0.1-0.1-0.1,0l-1.1,0.6l-0.6-0.3l0.7-0.4c0,0,0.1-0.1,0-0.1
			c0,0-0.1-0.1-0.1,0l-0.9,0.5l0,0c0,0,0,0,0,1.1c0,0.1,0,0.1,0.1,0.1s0.1,0,0.1-0.1v-0.8l0.6,0.3v1.3c0,0.1,0,0.1,0.1,0.1
			s0.1,0,0.1-0.1V147l1,0.6h0.1C84.3,147.3,84.3,147.3,84.2,147.2z"/>
	</g>
	<g>
		<path class="st0" d="M80.7,144.6L80.7,144.6l1.4-0.9h0.1v0.1L80.7,144.6C80.7,144.6,80.7,144.6,80.7,144.6z"/>
		<path class="st0" d="M84.2,143.8l-1-0.6l1-0.6c0,0,0.1-0.1,0-0.1c0,0-0.1-0.1-0.1,0l-1,0.6v-1.2c0-0.1,0-0.1-0.1-0.1
			s-0.1,0-0.1,0.1v1.3l-0.6,0.3v-0.8c0-0.1,0-0.1-0.1-0.1s-0.1,0-0.1,0.1c0,1,0,1,0,1.1c0,0,0,0,0.9,0.5h0.1v-0.1l-0.7-0.4l0.6-0.3
			l1.1,0.6h0.1C84.3,143.9,84.3,143.8,84.2,143.8z"/>
	</g>
</g>
<g>
	<circle class="st1" cx="139.9" cy="145" r="0.8"/>
	<g>
		<path class="st1" d="M139.9,144.3c-0.1,0-0.1,0-0.1-0.1v-1.7c0-0.1,0-0.1,0.1-0.1c0.1,0,0.1,0,0.1,0.1v1.7L139.9,144.3z"/>
		<path class="st1" d="M141.1,140.8c0,0-0.1-0.1-0.1,0l-1,0.6v-1.2c0-0.1,0-0.1-0.1-0.1c-0.1,0-0.1,0-0.1,0.1v1.1l-1-0.6h-0.1v0.1
			l1.1,0.6v0.7l-0.7-0.4H139v0.1l0.9,0.5h0.1l0.9-0.5c0,0,0.1-0.1,0-0.1c0,0-0.1-0.1-0.1,0l-0.7,0.4v-0.7l1.1-0.6
			C141.1,141,141.2,140.9,141.1,140.8z"/>
	</g>
	<g>
		<path class="st1" d="M139.1,144.7l-1.4-0.8c0,0-0.1-0.1,0-0.1c0,0,0.1-0.1,0.1,0L139.1,144.7C139.2,144.6,139.3,144.7,139.1,144.7
			C139.2,144.7,139.2,144.7,139.1,144.7z"/>
		<path class="st1" d="M137.8,142.8c0-0.1,0-0.1-0.1-0.1c-0.1,0-0.1,0-0.1,0.1v0.8l-0.6-0.3V142c0-0.1,0-0.1-0.1-0.1
			c-0.1,0-0.1,0-0.1,0.1v1.1l-1-0.6h-0.1v0.1l1,0.6l-1,0.6c0,0-0.1,0.1,0,0.1c0,0,0.1,0.1,0.1,0l1.1-0.6l0.6,0.3l-0.7,0.4
			c0,0-0.1,0.1,0,0.1c0,0,0.1,0.1,0.1,0l0.9-0.5l0,0l0,0C137.8,143.8,137.8,142.8,137.8,142.8z"/>
	</g>
	<g>
		<path class="st1" d="M137.6,146.3v-0.1l1.4-0.8h0.1v0.1L137.6,146.3C137.7,146.4,137.6,146.4,137.6,146.3z"/>
		<path class="st1" d="M137.8,146.2l-0.9-0.5h-0.1v0.1l0.7,0.4l-0.6,0.3l-1.1-0.6h-0.1v0.1l1,0.6l-1,0.6c-0.1,0.1-0.1,0.2,0.1,0.2
			c0,0,0,0,1.1-0.6v1.1c0,0.1,0,0.1,0.1,0.1c0.1,0,0.1,0,0.1-0.1v-1.3l0.6-0.3v0.8c0,0.1,0,0.1,0.1,0.1c0.1,0,0.1,0,0.1-0.1
			L137.8,146.2L137.8,146.2z"/>
	</g>
	<g>
		<path class="st1" d="M139.9,147.6c-0.1,0-0.1,0-0.1-0.1v-1.7c0-0.1,0-0.1,0.1-0.1c0.1,0,0.1,0,0.1,0.1v1.7
			C140,147.6,139.9,147.6,139.9,147.6z"/>
		<path class="st1" d="M141.1,149l-1.1-0.6v-0.7l0.7,0.4c0,0,0,0,0.1,0c0.1,0,0.1-0.1,0.1-0.2l-0.9-0.5h-0.1l-0.9,0.5
			c0,0-0.1,0.1,0,0.1c0,0,0.1,0.1,0.1,0l0.7-0.4v0.7l-1.1,0.6c0,0-0.1,0.1,0,0.1c0,0,0.1,0.1,0.1,0l1-0.6v1.1c0,0.1,0,0.1,0.1,0.1
			c0.1,0,0.1,0,0.1-0.1v-1.1l1,0.6H141.1C141.2,149.1,141.1,149.1,141.1,149z"/>
	</g>
	<g>
		<path class="st1" d="M142,146.4l-1.4-0.8c0,0-0.1-0.1,0-0.1c0,0,0.1-0.1,0.1,0l1.4,0.8c0,0,0.1,0.1,0,0.1H142z"/>
		<path class="st1" d="M144.1,147.3l-1-0.6l1-0.6c0,0,0.1-0.1,0-0.1c0,0-0.1-0.1-0.1,0l-1.1,0.6l-0.6-0.3l0.7-0.4c0,0,0.1-0.1,0-0.1
			c0,0-0.1-0.1-0.1,0l-0.9,0.5l0,0c0,0,0,0,0,1.1c0,0.1,0,0.1,0.1,0.1c0.1,0,0.1,0,0.1-0.1v-0.8l0.6,0.3v1.3c0,0.1,0,0.1,0.1,0.1
			c0.1,0,0.1,0,0.1-0.1v-1.1l1,0.6h0.1C144.1,147.4,144.1,147.3,144.1,147.3z"/>
	</g>
	<g>
		<path class="st1" d="M140.5,144.7L140.5,144.7l1.4-0.9h0.1v0.1l-1.4,0.8H140.5z"/>
		<path class="st1" d="M144.1,143.9l-1-0.6l1-0.6c0,0,0.1-0.1,0-0.1c0,0-0.1-0.1-0.1,0l-1,0.6V142c0-0.1,0-0.1-0.1-0.1
			c-0.1,0-0.1,0-0.1,0.1v1.3l-0.6,0.3v-0.8c0-0.1,0-0.1-0.1-0.1c-0.1,0-0.1,0-0.1,0.1c0,1,0,1,0,1.1c0,0,0,0,0.9,0.5h0.1v-0.1
			l-0.7-0.4l0.6-0.3l1.1,0.6h0.1C144.1,144,144.1,143.9,144.1,143.9z"/>
	</g>
</g>
<g>
	<circle class="st0" cx="34.4" cy="128.8" r="0.8"/>
	<g>
		<path class="st0" d="M34.4,128.1C34.3,128.1,34.3,128.1,34.4,128.1l-0.1-1.8c0-0.1,0-0.1,0.1-0.1s0.1,0,0.1,0.1L34.4,128.1
			C34.5,128.1,34.5,128.1,34.4,128.1z"/>
		<path class="st0" d="M35.7,124.7C35.7,124.7,35.6,124.6,35.7,124.7l-1.1,0.6v-1.2c0-0.1,0-0.1-0.1-0.1s-0.1,0-0.1,0.1v1.1l-1-0.6
			h-0.1v0.1l1.1,0.6v0.7l-0.7-0.4h-0.1v0.1l0.9,0.5h0.1l0.9-0.5c0,0,0.1-0.1,0-0.1c0,0-0.1-0.1-0.1,0l-0.7,0.4v-0.7l1.1-0.6
			C35.7,124.8,35.7,124.7,35.7,124.7z"/>
	</g>
	<g>
		<path class="st0" d="M33.6,128.5l-1.4-0.8c0,0-0.1-0.1,0-0.1c0,0,0.1-0.1,0.1,0l1.4,0.8C33.7,128.4,33.8,128.5,33.6,128.5
			C33.8,128.5,33.7,128.5,33.6,128.5z"/>
		<path class="st0" d="M32.4,126.6C32.4,126.5,32.4,126.5,32.4,126.6c-0.2-0.1-0.2-0.1-0.2,0v0.8l-0.6-0.3v-1.3c0-0.1,0-0.1-0.1-0.1
			s-0.1,0-0.1,0.1v1.1l-1-0.6h-0.1v0.1l1,0.6l-1,0.6c0,0-0.1,0.1,0,0.1c0,0,0.1,0.1,0.1,0l1.1-0.6l0.6,0.3l-0.7,0.4
			c0,0-0.1,0.1,0,0.1c0,0,0.1,0.1,0.1,0l0.9-0.5l0,0l0,0C32.4,127.6,32.4,126.6,32.4,126.6z"/>
	</g>
	<g>
		<path class="st0" d="M32.2,130.2L32.2,130.2l1.4-0.9h0.1v0.1L32.2,130.2L32.2,130.2z"/>
		<path class="st0" d="M32.3,130l-0.9-0.5h-0.1v0.1L32,130l-0.6,0.3l-1.1-0.6h-0.1v0.1l1,0.6l-1,0.6c-0.1,0.1-0.1,0.2,0.1,0.2
			c0,0,0,0,1.1-0.6v1.1c0,0.1,0,0.1,0.1,0.1s0.1,0,0.1-0.1v-1.3l0.6-0.3v0.8c0,0.1,0,0.1,0.1,0.1s0.1,0,0.1-0.1L32.3,130
			C32.4,130.1,32.3,130,32.3,130z"/>
	</g>
	<g>
		<path class="st0" d="M34.4,131.5c-0.1,0-0.1,0-0.1-0.1v-1.7c0-0.1,0-0.1,0.1-0.1s0.1,0,0.1,0.1v1.7
			C34.5,131.4,34.5,131.5,34.4,131.5z"/>
		<path class="st0" d="M35.6,132.9l-1.1-0.6v-0.7l0.7,0.4c0,0,0,0,0.1,0s0.1-0.1,0.1-0.2l-0.9-0.5h-0.1l-0.9,0.5c0,0-0.1,0.1,0,0.1
			c0,0,0.1,0.1,0.1,0l0.7-0.4v0.7l-1.1,0.6c0,0-0.1,0.1,0,0.1c0,0,0.1,0.1,0.1,0l1-0.6v1.1c0,0.1,0,0.1,0.1,0.1s0.1,0,0.1-0.1v-1.1
			l1,0.6H35.6C35.7,133,35.7,132.9,35.6,132.9z"/>
	</g>
	<g>
		<path class="st0" d="M36.5,130.2l-1.4-0.8c0,0-0.1-0.1,0-0.1c0,0,0.1-0.1,0.1,0L36.5,130.2C36.6,130.1,36.7,130.2,36.5,130.2
			C36.7,130.2,36.6,130.2,36.5,130.2z"/>
		<path class="st0" d="M38.6,131.1l-1-0.6l1-0.6c0,0,0.1-0.1,0-0.1c0,0-0.1-0.1-0.1,0l-1.1,0.6l-0.6-0.3l0.7-0.4c0,0,0.1-0.1,0-0.1
			c0,0-0.1-0.1-0.1,0l-0.9,0.5l0,0c0,0,0,0,0,1.1c0,0.1,0,0.1,0.1,0.1s0.1,0,0.1-0.1v-0.8l0.6,0.3v1.3c0,0.1,0,0.1,0.1,0.1
			s0.1,0,0.1-0.1v-1.1l1,0.6h0.1C38.7,131.2,38.7,131.2,38.6,131.1z"/>
	</g>
	<g>
		<path class="st0" d="M35.1,128.5v-0.1l1.4-0.8h0.1v0.1L35.1,128.5C35.1,128.5,35.1,128.5,35.1,128.5z"/>
		<path class="st0" d="M38.6,127.7l-1-0.6l1-0.6c0,0,0.1-0.1,0-0.1c0,0-0.1-0.1-0.1,0l-1,0.6v-1.2c0-0.1,0-0.1-0.1-0.1
			s-0.1,0-0.1,0.1v1.3l-0.6,0.3v-0.8c0-0.1,0-0.1-0.1-0.1s-0.1,0-0.1,0.1c0,1,0,1,0,1.1c0,0,0,0,0.9,0.5h0.1v-0.1l-0.7-0.4l0.6-0.3
			l1.1,0.6h0.1C38.7,127.8,38.7,127.7,38.6,127.7z"/>
	</g>
</g>
<g>
	<circle class="st1" cx="64.3" cy="128.8" r="0.8"/>
	<g>
		<path class="st1" d="M64.3,128.1C64.2,128.1,64.2,128.1,64.3,128.1l-0.1-1.8c0-0.1,0-0.1,0.1-0.1s0.1,0,0.1,0.1L64.3,128.1
			C64.4,128.1,64.4,128.1,64.3,128.1z"/>
		<path class="st1" d="M65.6,124.7C65.6,124.7,65.5,124.6,65.6,124.7l-1.1,0.6v-1.2c0-0.1,0-0.1-0.1-0.1s-0.1,0-0.1,0.1v1.1l-1-0.6
			h-0.1v0.1l1.1,0.6v0.7l-0.7-0.4h-0.1v0.1l0.9,0.5h0.1l0.9-0.5c0,0,0.1-0.1,0-0.1c0,0-0.1-0.1-0.1,0l-0.7,0.4v-0.7l1.1-0.6
			C65.6,124.8,65.6,124.7,65.6,124.7z"/>
	</g>
	<g>
		<path class="st1" d="M63.5,128.5l-1.4-0.8c0,0-0.1-0.1,0-0.1c0,0,0.1-0.1,0.1,0l1.4,0.8C63.6,128.4,63.7,128.5,63.5,128.5
			C63.7,128.5,63.6,128.5,63.5,128.5z"/>
		<path class="st1" d="M62.3,126.6C62.3,126.5,62.3,126.5,62.3,126.6c-0.2-0.1-0.2-0.1-0.2,0v0.8l-0.6-0.3v-1.3c0-0.1,0-0.1-0.1-0.1
			s-0.1,0-0.1,0.1v1.1l-1-0.6h-0.1v0.1l1,0.6l-1,0.6c0,0-0.1,0.1,0,0.1c0,0,0.1,0.1,0.1,0l1.1-0.6l0.6,0.3l-0.7,0.4
			c0,0-0.1,0.1,0,0.1c0,0,0.1,0.1,0.1,0l0.9-0.5l0,0l0,0C62.3,127.6,62.3,126.6,62.3,126.6z"/>
	</g>
	<g>
		<path class="st1" d="M62.1,130.2L62.1,130.2l1.4-0.9h0.1v0.1L62.1,130.2L62.1,130.2z"/>
		<path class="st1" d="M62.2,130l-0.9-0.5h-0.1v0.1l0.7,0.4l-0.6,0.3l-1.1-0.6h-0.1v0.1l1,0.6l-1,0.6c-0.1,0.1-0.1,0.2,0.1,0.2
			c0,0,0,0,1.1-0.6v1.1c0,0.1,0,0.1,0.1,0.1s0.1,0,0.1-0.1v-1.3l0.6-0.3v0.8c0,0.1,0,0.1,0.1,0.1s0.1,0,0.1-0.1L62.2,130
			C62.3,130.1,62.2,130,62.2,130z"/>
	</g>
	<g>
		<path class="st1" d="M64.3,131.5c-0.1,0-0.1,0-0.1-0.1v-1.7c0-0.1,0-0.1,0.1-0.1s0.1,0,0.1,0.1v1.7
			C64.4,131.4,64.4,131.5,64.3,131.5z"/>
		<path class="st1" d="M65.5,132.9l-1.1-0.6v-0.7l0.7,0.4c0,0,0,0,0.1,0s0.1-0.1,0.1-0.2l-0.9-0.5h-0.1l-0.9,0.5c0,0-0.1,0.1,0,0.1
			c0,0,0.1,0.1,0.1,0l0.7-0.4v0.7l-1.1,0.6c0,0-0.1,0.1,0,0.1c0,0,0.1,0.1,0.1,0l1-0.6v1.1c0,0.1,0,0.1,0.1,0.1s0.1,0,0.1-0.1v-1.1
			l1,0.6H65.5C65.6,133,65.6,132.9,65.5,132.9z"/>
	</g>
	<g>
		<path class="st1" d="M66.4,130.2l-1.4-0.8c0,0-0.1-0.1,0-0.1c0,0,0.1-0.1,0.1,0L66.4,130.2C66.5,130.1,66.6,130.2,66.4,130.2
			C66.6,130.2,66.5,130.2,66.4,130.2z"/>
		<path class="st1" d="M68.5,131.1l-1-0.6l1-0.6c0,0,0.1-0.1,0-0.1c0,0-0.1-0.1-0.1,0l-1.1,0.6l-0.6-0.3l0.7-0.4c0,0,0.1-0.1,0-0.1
			c0,0-0.1-0.1-0.1,0l-0.9,0.5l0,0c0,0,0,0,0,1.1c0,0.1,0,0.1,0.1,0.1s0.1,0,0.1-0.1v-0.8l0.6,0.3v1.3c0,0.1,0,0.1,0.1,0.1
			s0.1,0,0.1-0.1v-1.1l1,0.6h0.1C68.6,131.2,68.6,131.2,68.5,131.1z"/>
	</g>
	<g>
		<path class="st1" d="M65,128.5v-0.1l1.4-0.8h0.1v0.1L65,128.5C65,128.5,65,128.5,65,128.5z"/>
		<path class="st1" d="M68.5,127.7l-1-0.6l1-0.6c0,0,0.1-0.1,0-0.1c0,0-0.1-0.1-0.1,0l-1,0.6v-1.2c0-0.1,0-0.1-0.1-0.1
			s-0.1,0-0.1,0.1v1.3l-0.6,0.3v-0.8c0-0.1,0-0.1-0.1-0.1s-0.1,0-0.1,0.1c0,1,0,1,0,1.1c0,0,0,0,0.9,0.5h0.1v-0.1l-0.7-0.4l0.6-0.3
			l1.1,0.6h0.1C68.6,127.8,68.6,127.7,68.5,127.7z"/>
	</g>
</g>
<g>
	<circle class="st1" cx="94.3" cy="128.9" r="0.8"/>
	<g>
		<path class="st1" d="M94.3,128.2C94.2,128.2,94.2,128.2,94.3,128.2l-0.1-1.8c0-0.1,0-0.1,0.1-0.1s0.1,0,0.1,0.1L94.3,128.2
			L94.3,128.2z"/>
		<path class="st1" d="M95.5,124.7C95.5,124.7,95.4,124.6,95.5,124.7l-1.1,0.6v-1.2c0-0.1,0-0.1-0.1-0.1s-0.1,0-0.1,0.1v1.1l-1-0.6
			h-0.1v0.1l1.1,0.6v0.7l-0.7-0.4h-0.1v0.1l0.9,0.5h0.1l0.9-0.5c0,0,0.1-0.1,0-0.1c0,0-0.1-0.1-0.1,0l-0.7,0.4v-0.7l1.1-0.6
			C95.5,124.9,95.6,124.8,95.5,124.7z"/>
	</g>
	<g>
		<path class="st1" d="M93.5,128.6l-1.4-0.8c0,0-0.1-0.1,0-0.1c0,0,0.1-0.1,0.1,0l1.4,0.8C93.6,128.5,93.7,128.6,93.5,128.6
			C93.6,128.6,93.6,128.6,93.5,128.6z"/>
		<path class="st1" d="M92.2,126.7C92.2,126.6,92.2,126.6,92.2,126.7c-0.2-0.1-0.2-0.1-0.2,0v0.8l-0.6-0.3v-1.3c0-0.1,0-0.1-0.1-0.1
			s-0.1,0-0.1,0.1v1.1l-1-0.6h-0.1v0.1l1,0.6l-1,0.6c0,0-0.1,0.1,0,0.1c0,0,0.1,0.1,0.1,0l1.1-0.6l0.6,0.3l-0.7,0.4
			c0,0-0.1,0.1,0,0.1c0,0,0.1,0.1,0.1,0l0.9-0.5l0,0l0,0C92.2,127.7,92.2,126.7,92.2,126.7z"/>
	</g>
	<g>
		<path class="st1" d="M92,130.2L92,130.2l1.4-0.9h0.1v0.1L92,130.2C92.1,130.3,92,130.3,92,130.2z"/>
		<path class="st1" d="M92.2,130.1l-0.9-0.5h-0.1v0.1l0.7,0.4l-0.6,0.3l-1.1-0.6h-0.1v0.1l1,0.6l-1,0.6c-0.1,0.1-0.1,0.2,0.1,0.2
			c0,0,0,0,1.1-0.6v1.1c0,0.1,0,0.1,0.1,0.1s0.1,0,0.1-0.1v-1.3l0.6-0.3v0.8c0,0.1,0,0.1,0.1,0.1s0.1,0,0.1-0.1L92.2,130.1
			L92.2,130.1z"/>
	</g>
	<g>
		<path class="st1" d="M94.3,131.5C94.2,131.5,94.2,131.5,94.3,131.5l-0.1-1.8c0-0.1,0-0.1,0.1-0.1s0.1,0,0.1,0.1L94.3,131.5
			C94.4,131.5,94.3,131.5,94.3,131.5z"/>
		<path class="st1" d="M95.5,132.9l-1.1-0.6v-0.7l0.7,0.4c0,0,0,0,0.1,0s0.1-0.1,0.1-0.2l-0.9-0.5h-0.1l-0.9,0.5c0,0-0.1,0.1,0,0.1
			c0,0,0.1,0.1,0.1,0l0.7-0.4v0.7l-1.1,0.6c0,0-0.1,0.1,0,0.1c0,0,0.1,0.1,0.1,0l1-0.6v1.1c0,0.1,0,0.1,0.1,0.1s0.1,0,0.1-0.1v-1.1
			l1,0.6L95.5,132.9C95.6,133,95.5,133,95.5,132.9z"/>
	</g>
	<g>
		<path class="st1" d="M96.4,130.3l-1.4-0.8c0,0-0.1-0.1,0-0.1c0,0,0.1-0.1,0.1,0l1.4,0.8C96.5,130.2,96.6,130.3,96.4,130.3
			L96.4,130.3z"/>
		<path class="st1" d="M98.5,131.2l-1-0.6l1-0.6c0,0,0.1-0.1,0-0.1c0,0-0.1-0.1-0.1,0l-1.1,0.6l-0.6-0.3l0.7-0.4c0,0,0.1-0.1,0-0.1
			c0,0-0.1-0.1-0.1,0l-0.9,0.5l0,0c0,0,0,0,0,1.1c0,0.1,0,0.1,0.1,0.1s0.1,0,0.1-0.1v-0.8l0.6,0.3v1.3c0,0.1,0,0.1,0.1,0.1
			s0.1,0,0.1-0.1V131l1,0.6h0.1C98.5,131.3,98.5,131.2,98.5,131.2z"/>
	</g>
	<g>
		<path class="st1" d="M94.9,128.6v-0.1l1.4-0.8h0.1v0.1L94.9,128.6L94.9,128.6z"/>
		<path class="st1" d="M98.5,127.8l-1-0.6l1-0.6c0,0,0.1-0.1,0-0.1c0,0-0.1-0.1-0.1,0l-1,0.6v-1.2c0-0.1,0-0.1-0.1-0.1
			s-0.1,0-0.1,0.1v1.3l-0.6,0.3v-0.8c0-0.1,0-0.1-0.1-0.1s-0.1,0-0.1,0.1c0,1,0,1,0,1.1c0,0,0,0,0.9,0.5h0.1v-0.1l-0.7-0.4l0.6-0.3
			l1.1,0.6h0.1C98.5,127.9,98.5,127.8,98.5,127.8z"/>
	</g>
</g>
<g>
	<circle class="st0" cx="124.3" cy="128.9" r="0.8"/>
	<g>
		<path class="st0" d="M124.3,128.2C124.2,128.2,124.2,128.2,124.3,128.2l-0.1-1.8c0-0.1,0-0.1,0.1-0.1s0.1,0,0.1,0.1L124.3,128.2
			L124.3,128.2z"/>
		<path class="st0" d="M125.5,124.7C125.5,124.7,125.4,124.6,125.5,124.7l-1.1,0.6v-1.2c0-0.1,0-0.1-0.1-0.1s-0.1,0-0.1,0.1v1.1
			l-1-0.6h-0.1v0.1l1.1,0.6v0.7l-0.7-0.4h-0.1v0.1l0.9,0.5h0.1l0.9-0.5c0,0,0.1-0.1,0-0.1c0,0-0.1-0.1-0.1,0l-0.7,0.4v-0.7l1.1-0.6
			C125.5,124.9,125.6,124.8,125.5,124.7z"/>
	</g>
	<g>
		<path class="st0" d="M123.5,128.6l-1.4-0.8c0,0-0.1-0.1,0-0.1c0,0,0.1-0.1,0.1,0l1.4,0.8C123.6,128.5,123.7,128.6,123.5,128.6
			C123.6,128.6,123.6,128.6,123.5,128.6z"/>
		<path class="st0" d="M122.2,126.7C122.2,126.6,122.2,126.6,122.2,126.7c-0.2-0.1-0.2-0.1-0.2,0v0.8l-0.6-0.3v-1.3
			c0-0.1,0-0.1-0.1-0.1s-0.1,0-0.1,0.1v1.1l-1-0.6h-0.1v0.1l1,0.6l-1,0.6c0,0-0.1,0.1,0,0.1c0,0,0.1,0.1,0.1,0l1.1-0.6l0.6,0.3
			l-0.7,0.4c0,0-0.1,0.1,0,0.1c0,0,0.1,0.1,0.1,0l0.9-0.5l0,0l0,0C122.2,127.7,122.2,126.7,122.2,126.7z"/>
	</g>
	<g>
		<path class="st0" d="M122,130.2L122,130.2l1.4-0.9h0.1v0.1L122,130.2C122.1,130.3,122,130.3,122,130.2z"/>
		<path class="st0" d="M122.2,130.1l-0.9-0.5h-0.1v0.1l0.7,0.4l-0.6,0.3l-1.1-0.6h-0.1v0.1l1,0.6l-1,0.6c-0.1,0.1-0.1,0.2,0.1,0.2
			c0,0,0,0,1.1-0.6v1.1c0,0.1,0,0.1,0.1,0.1s0.1,0,0.1-0.1v-1.3l0.6-0.3v0.8c0,0.1,0,0.1,0.1,0.1s0.1,0,0.1-0.1L122.2,130.1
			L122.2,130.1z"/>
	</g>
	<g>
		<path class="st0" d="M124.3,131.5C124.2,131.5,124.2,131.5,124.3,131.5l-0.1-1.8c0-0.1,0-0.1,0.1-0.1s0.1,0,0.1,0.1L124.3,131.5
			C124.4,131.5,124.3,131.5,124.3,131.5z"/>
		<path class="st0" d="M125.5,132.9l-1.1-0.6v-0.7l0.7,0.4c0,0,0,0,0.1,0s0.1-0.1,0.1-0.2l-0.9-0.5h-0.1l-0.9,0.5c0,0-0.1,0.1,0,0.1
			c0,0,0.1,0.1,0.1,0l0.7-0.4v0.7l-1.1,0.6c0,0-0.1,0.1,0,0.1c0,0,0.1,0.1,0.1,0l1-0.6v1.1c0,0.1,0,0.1,0.1,0.1s0.1,0,0.1-0.1v-1.1
			l1,0.6L125.5,132.9C125.6,133,125.5,133,125.5,132.9z"/>
	</g>
	<g>
		<path class="st0" d="M126.4,130.3l-1.4-0.8c0,0-0.1-0.1,0-0.1c0,0,0.1-0.1,0.1,0l1.4,0.8C126.5,130.2,126.6,130.3,126.4,130.3
			L126.4,130.3z"/>
		<path class="st0" d="M128.5,131.2l-1-0.6l1-0.6c0,0,0.1-0.1,0-0.1c0,0-0.1-0.1-0.1,0l-1.1,0.6l-0.6-0.3l0.7-0.4c0,0,0.1-0.1,0-0.1
			c0,0-0.1-0.1-0.1,0l-0.9,0.5l0,0c0,0,0,0,0,1.1c0,0.1,0,0.1,0.1,0.1s0.1,0,0.1-0.1v-0.8l0.6,0.3v1.3c0,0.1,0,0.1,0.1,0.1
			s0.1,0,0.1-0.1V131l1,0.6h0.1C128.5,131.3,128.5,131.2,128.5,131.2z"/>
	</g>
	<g>
		<path class="st0" d="M124.9,128.6v-0.1l1.4-0.8h0.1v0.1L124.9,128.6L124.9,128.6z"/>
		<path class="st0" d="M128.5,127.8l-1-0.6l1-0.6c0,0,0.1-0.1,0-0.1c0,0-0.1-0.1-0.1,0l-1,0.6v-1.2c0-0.1,0-0.1-0.1-0.1
			s-0.1,0-0.1,0.1v1.3l-0.6,0.3v-0.8c0-0.1,0-0.1-0.1-0.1s-0.1,0-0.1,0.1c0,1,0,1,0,1.1c0,0,0,0,0.9,0.5h0.1v-0.1l-0.7-0.4l0.6-0.3
			l1.1,0.6h0.1C128.5,127.9,128.5,127.8,128.5,127.8z"/>
	</g>
</g>
</svg>
