<?xml version="1.0" encoding="utf-8"?>
<!-- Generator: Adobe Illustrator 25.4.1, SVG Export Plug-In . SVG Version: 6.00 Build 0)  -->
<svg version="1.1" id="Layer_1" xmlns="http://www.w3.org/2000/svg" xmlns:xlink="http://www.w3.org/1999/xlink" x="0px" y="0px"
	 width="160px" height="160px" viewBox="0 0 160 160" style="enable-background:new 0 0 160 160;" xml:space="preserve">
<style type="text/css">
	.st0{fill:#414F7F;}
	.st1{fill:#7988B2;}
</style>
<path class="st0" d="M157.2,66.7c-5.5-8-16.7-9.2-23.7-2.9c1.5-15.5-10.7-28.6-26-28.6c-5.9,0-11.4,2-15.8,5.3
	C90.9,23.1,76.6,9.1,58.9,9.1C39,9.1,23.7,26.8,26.6,46.6C12.6,44.2,0,54.9,0,68.9c0,12.5,10.1,22.7,22.8,22.7h121.3
	C156.9,91.6,164.4,77.2,157.2,66.7z"/>
<g>
	<path class="st1" d="M15.3,123.1c-0.8-0.5-1.1-1.6-0.6-2.4l11.7-19.3c0.5-0.8,1.6-1.1,2.4-0.6c0.8,0.5,1.1,1.6,0.6,2.4l-11.7,19.3
		C17.3,123.3,16.2,123.6,15.3,123.1z"/>
	<path class="st1" d="M73.2,123.1c-0.8-0.5-1.1-1.6-0.6-2.4l11.7-19.3c0.5-0.8,1.6-1.1,2.4-0.6s1.1,1.6,0.6,2.4l-11.7,19.3
		C75.2,123.3,74.2,123.6,73.2,123.1z"/>
	<path class="st1" d="M131.2,123.1c-0.8-0.5-1.1-1.6-0.6-2.4l11.7-19.3c0.5-0.8,1.6-1.1,2.4-0.6s1.1,1.6,0.6,2.4l-11.7,19.3
		C133.2,123.3,132.1,123.6,131.2,123.1z"/>
</g>
<g>
	<circle class="st0" cx="49.1" cy="111.9" r="0.8"/>
	<g>
		<path class="st0" d="M49.1,111.2c-0.1,0-0.1,0-0.1-0.1v-1.7c0-0.1,0-0.1,0.1-0.1s0.1,0,0.1,0.1v1.7
			C49.2,111.2,49.2,111.2,49.1,111.2z"/>
		<path class="st0" d="M50.4,107.8c0,0-0.1-0.1-0.1,0l-1,0.6v-1.2c0-0.1,0-0.1-0.1-0.1c-0.1,0-0.1,0-0.1,0.1v1.1l-1-0.6
			c0,0-0.1,0-0.1,0s0,0.1,0,0.1l1.1,0.6v0.7l-0.7-0.4c0,0-0.1,0-0.1,0c0,0,0,0.1,0,0.1c0,0,0.9,0.5,0.9,0.5c0,0,0.1,0,0.1,0
			c0,0,0.9-0.5,0.9-0.5c0,0,0.1-0.1,0-0.1c0,0-0.1-0.1-0.1,0l-0.7,0.4v-0.7l1.1-0.6C50.4,107.9,50.4,107.8,50.4,107.8z"/>
	</g>
	<g>
		<path class="st0" d="M48.3,111.6l-1.4-0.8c0,0-0.1-0.1,0-0.1c0,0,0.1-0.1,0.1,0l1.4,0.8c0,0,0.1,0.1,0,0.1
			C48.5,111.6,48.4,111.6,48.3,111.6z"/>
		<path class="st0" d="M47.1,109.7c0-0.1,0-0.1-0.1-0.1s-0.1,0-0.1,0.1v0.8l-0.6-0.3v-1.3c0-0.1,0-0.1-0.1-0.1c-0.1,0-0.1,0-0.1,0.1
			v1.1l-1-0.6c0,0-0.1,0-0.1,0c0,0,0,0.1,0,0.1l1,0.6l-1,0.6c0,0-0.1,0.1,0,0.1c0,0,0.1,0.1,0.1,0l1.1-0.6l0.6,0.3l-0.7,0.4
			c0,0-0.1,0.1,0,0.1c0,0,0.1,0.1,0.1,0c0,0,0.9-0.5,0.9-0.5c0,0,0,0,0,0c0,0,0,0,0,0C47.1,110.7,47.1,109.7,47.1,109.7z"/>
	</g>
	<g>
		<path class="st0" d="M46.9,113.3c0,0,0-0.1,0-0.1l1.4-0.8c0,0,0.1,0,0.1,0s0,0.1,0,0.1l-1.4,0.8C47,113.3,46.9,113.3,46.9,113.3z"
			/>
		<path class="st0" d="M47,113.1l-0.9-0.5c0,0-0.1,0-0.1,0s0,0.1,0,0.1l0.7,0.4l-0.6,0.3l-1.1-0.6c0,0-0.1,0-0.1,0s0,0.1,0,0.1
			l1,0.6l-1,0.6c-0.1,0.1-0.1,0.2,0.1,0.2c0,0,0,0,1.1-0.6v1.1c0,0.1,0,0.1,0.1,0.1c0.1,0,0.1,0,0.1-0.1v-1.3l0.6-0.3v0.8
			c0,0.1,0,0.1,0.1,0.1s0.1,0,0.1-0.1L47,113.1C47.1,113.2,47,113.1,47,113.1z"/>
	</g>
	<g>
		<path class="st0" d="M49.1,114.6c-0.1,0-0.1,0-0.1-0.1v-1.7c0-0.1,0-0.1,0.1-0.1s0.1,0,0.1,0.1v1.7
			C49.2,114.5,49.2,114.6,49.1,114.6z"/>
		<path class="st0" d="M50.3,116l-1.1-0.6v-0.7l0.7,0.4c0,0,0,0,0.1,0c0.1,0,0.1-0.1,0.1-0.2c0,0-0.9-0.5-0.9-0.5c0,0-0.1,0-0.1,0
			l-0.9,0.5c0,0-0.1,0.1,0,0.1c0,0,0.1,0.1,0.1,0l0.7-0.4v0.7l-1.1,0.6c0,0-0.1,0.1,0,0.1c0,0,0.1,0.1,0.1,0l1-0.6v1.1
			c0,0.1,0,0.1,0.1,0.1s0.1,0,0.1-0.1v-1.1l1,0.6c0,0,0.1,0,0.1,0C50.4,116.1,50.4,116,50.3,116z"/>
	</g>
	<g>
		<path class="st0" d="M51.2,113.3l-1.4-0.8c0,0-0.1-0.1,0-0.1c0,0,0.1-0.1,0.1,0l1.4,0.8c0,0,0.1,0.1,0,0.1
			C51.4,113.3,51.3,113.3,51.2,113.3z"/>
		<path class="st0" d="M53.3,114.2l-1-0.6l1-0.6c0,0,0.1-0.1,0-0.1c0,0-0.1-0.1-0.1,0l-1.1,0.6l-0.6-0.3l0.7-0.4c0,0,0.1-0.1,0-0.1
			c0,0-0.1-0.1-0.1,0l-0.9,0.5c0,0,0,0,0,0c0,0,0,0,0,1.1c0,0.1,0,0.1,0.1,0.1s0.1,0,0.1-0.1v-0.8l0.6,0.3v1.3c0,0.1,0,0.1,0.1,0.1
			s0.1,0,0.1-0.1v-1.1l1,0.6c0,0,0.1,0,0.1,0C53.4,114.3,53.4,114.3,53.3,114.2z"/>
	</g>
	<g>
		<path class="st0" d="M49.8,111.6c0,0,0-0.1,0-0.1l1.4-0.8c0,0,0.1,0,0.1,0c0,0,0,0.1,0,0.1l-1.4,0.8
			C49.8,111.6,49.8,111.6,49.8,111.6z"/>
		<path class="st0" d="M53.3,110.8l-1-0.6l1-0.6c0,0,0.1-0.1,0-0.1c0,0-0.1-0.1-0.1,0l-1,0.6v-1.2c0-0.1,0-0.1-0.1-0.1
			s-0.1,0-0.1,0.1v1.3l-0.6,0.3v-0.8c0-0.1,0-0.1-0.1-0.1s-0.1,0-0.1,0.1c0,1,0,1,0,1.1c0,0,0,0,0.9,0.5c0,0,0.1,0,0.1,0
			s0-0.1,0-0.1l-0.7-0.4l0.6-0.3l1.1,0.6c0,0,0.1,0,0.1,0C53.4,110.9,53.4,110.8,53.3,110.8z"/>
	</g>
</g>
<g>
	<circle class="st0" cx="110.9" cy="111.3" r="0.8"/>
	<g>
		<path class="st0" d="M110.9,110.6c-0.1,0-0.1,0-0.1-0.1v-1.7c0-0.1,0-0.1,0.1-0.1c0.1,0,0.1,0,0.1,0.1v1.7
			C111,110.5,110.9,110.6,110.9,110.6z"/>
		<path class="st0" d="M112.1,107.1c0,0-0.1-0.1-0.1,0l-1,0.6v-1.2c0-0.1,0-0.1-0.1-0.1s-0.1,0-0.1,0.1v1.1l-1-0.6c0,0-0.1,0-0.1,0
			s0,0.1,0,0.1l1.1,0.6v0.7l-0.7-0.4c0,0-0.1,0-0.1,0s0,0.1,0,0.1c0,0,0.9,0.5,0.9,0.5c0,0,0.1,0,0.1,0c0,0,0.9-0.5,0.9-0.5
			c0,0,0.1-0.1,0-0.1c0,0-0.1-0.1-0.1,0l-0.7,0.4v-0.7l1.1-0.6C112.1,107.3,112.2,107.2,112.1,107.1z"/>
	</g>
	<g>
		<path class="st0" d="M110.1,111l-1.4-0.8c0,0-0.1-0.1,0-0.1c0,0,0.1-0.1,0.1,0l1.4,0.8c0,0,0.1,0.1,0,0.1
			C110.2,111,110.2,111,110.1,111z"/>
		<path class="st0" d="M108.8,109.1c0-0.1,0-0.1-0.1-0.1c-0.1,0-0.1,0-0.1,0.1v0.8l-0.6-0.3v-1.3c0-0.1,0-0.1-0.1-0.1
			c-0.1,0-0.1,0-0.1,0.1v1.1l-1-0.6c0,0-0.1,0-0.1,0c0,0,0,0.1,0,0.1l1,0.6l-1,0.6c0,0-0.1,0.1,0,0.1c0,0,0.1,0.1,0.1,0l1.1-0.6
			l0.6,0.3l-0.7,0.4c0,0-0.1,0.1,0,0.1c0,0,0.1,0.1,0.1,0c0,0,0.9-0.5,0.9-0.5c0,0,0,0,0,0c0,0,0,0,0,0
			C108.8,110.1,108.8,109.1,108.8,109.1z"/>
	</g>
	<g>
		<path class="st0" d="M108.6,112.6c0,0,0-0.1,0-0.1l1.4-0.8c0,0,0.1,0,0.1,0s0,0.1,0,0.1l-1.4,0.8
			C108.7,112.7,108.6,112.7,108.6,112.6z"/>
		<path class="st0" d="M108.8,112.5l-0.9-0.5c0,0-0.1,0-0.1,0c0,0,0,0.1,0,0.1l0.7,0.4l-0.6,0.3l-1.1-0.6c0,0-0.1,0-0.1,0
			s0,0.1,0,0.1l1,0.6l-1,0.6c-0.1,0.1-0.1,0.2,0.1,0.2c0,0,0,0,1.1-0.6v1.1c0,0.1,0,0.1,0.1,0.1c0.1,0,0.1,0,0.1-0.1v-1.3l0.6-0.3
			v0.8c0,0.1,0,0.1,0.1,0.1c0.1,0,0.1,0,0.1-0.1L108.8,112.5C108.8,112.5,108.8,112.5,108.8,112.5z"/>
	</g>
	<g>
		<path class="st0" d="M110.9,113.9c-0.1,0-0.1,0-0.1-0.1v-1.7c0-0.1,0-0.1,0.1-0.1c0.1,0,0.1,0,0.1,0.1v1.7
			C111,113.9,110.9,113.9,110.9,113.9z"/>
		<path class="st0" d="M112.1,115.3l-1.1-0.6V114l0.7,0.4c0,0,0,0,0.1,0c0.1,0,0.1-0.1,0.1-0.2c0,0-0.9-0.5-0.9-0.5c0,0-0.1,0-0.1,0
			l-0.9,0.5c0,0-0.1,0.1,0,0.1c0,0,0.1,0.1,0.1,0l0.7-0.4v0.7l-1.1,0.6c0,0-0.1,0.1,0,0.1c0,0,0.1,0.1,0.1,0l1-0.6v1.1
			c0,0.1,0,0.1,0.1,0.1s0.1,0,0.1-0.1v-1.1l1,0.6c0,0,0.1,0,0.1,0C112.2,115.4,112.1,115.4,112.1,115.3z"/>
	</g>
	<g>
		<path class="st0" d="M113,112.7l-1.4-0.8c0,0-0.1-0.1,0-0.1c0,0,0.1-0.1,0.1,0l1.4,0.8c0,0,0.1,0.1,0,0.1
			C113.1,112.7,113,112.7,113,112.7z"/>
		<path class="st0" d="M115.1,113.6l-1-0.6l1-0.6c0,0,0.1-0.1,0-0.1c0,0-0.1-0.1-0.1,0l-1.1,0.6l-0.6-0.3l0.7-0.4c0,0,0.1-0.1,0-0.1
			c0,0-0.1-0.1-0.1,0l-0.9,0.5c0,0,0,0,0,0c0,0,0,0,0,1.1c0,0.1,0,0.1,0.1,0.1c0.1,0,0.1,0,0.1-0.1v-0.8l0.6,0.3v1.3
			c0,0.1,0,0.1,0.1,0.1c0.1,0,0.1,0,0.1-0.1v-1.1l1,0.6c0,0,0.1,0,0.1,0C115.1,113.7,115.1,113.6,115.1,113.6z"/>
	</g>
	<g>
		<path class="st0" d="M111.5,111c0,0,0-0.1,0-0.1l1.4-0.8c0,0,0.1,0,0.1,0s0,0.1,0,0.1l-1.4,0.8C111.6,111,111.5,111,111.5,111z"/>
		<path class="st0" d="M115.1,110.2l-1-0.6l1-0.6c0,0,0.1-0.1,0-0.1c0,0-0.1-0.1-0.1,0l-1,0.6v-1.2c0-0.1,0-0.1-0.1-0.1
			c-0.1,0-0.1,0-0.1,0.1v1.3l-0.6,0.3v-0.8c0-0.1,0-0.1-0.1-0.1c-0.1,0-0.1,0-0.1,0.1c0,1,0,1,0,1.1c0,0,0,0,0.9,0.5
			c0,0,0.1,0,0.1,0s0-0.1,0-0.1l-0.7-0.4l0.6-0.3l1.1,0.6c0,0,0.1,0,0.1,0C115.1,110.3,115.1,110.2,115.1,110.2z"/>
	</g>
</g>
<path class="st1" d="M30.5,148.7c-0.8-0.5-1.1-1.6-0.6-2.4L41.6,127c0.5-0.8,1.6-1.1,2.4-0.6c0.8,0.5,1.1,1.6,0.6,2.4l-11.7,19.3
	C32.5,148.9,31.4,149.2,30.5,148.7z"/>
<path class="st1" d="M88.4,148.7c-0.8-0.5-1.1-1.6-0.6-2.4L99.5,127c0.5-0.8,1.6-1.1,2.4-0.6s1.1,1.6,0.6,2.4l-11.7,19.3
	C90.4,148.9,89.3,149.2,88.4,148.7z"/>
<g>
	<circle class="st0" cx="68.2" cy="136.9" r="0.8"/>
	<g>
		<path class="st0" d="M68.2,136.2c-0.1,0-0.1,0-0.1-0.1v-1.7c0-0.1,0-0.1,0.1-0.1c0.1,0,0.1,0,0.1,0.1v1.7
			C68.3,136.1,68.2,136.2,68.2,136.2z"/>
		<path class="st0" d="M69.4,132.7c0,0-0.1-0.1-0.1,0l-1,0.6v-1.2c0-0.1,0-0.1-0.1-0.1c-0.1,0-0.1,0-0.1,0.1v1.1l-1-0.6
			c0,0-0.1,0-0.1,0c0,0,0,0.1,0,0.1l1.1,0.6v0.7l-0.7-0.4c0,0-0.1,0-0.1,0c0,0,0,0.1,0,0.1c0,0,0.9,0.5,0.9,0.5c0,0,0.1,0,0.1,0
			c0,0,0.9-0.5,0.9-0.5c0,0,0.1-0.1,0-0.1c0,0-0.1-0.1-0.1,0l-0.7,0.4v-0.7l1.1-0.6C69.4,132.8,69.4,132.8,69.4,132.7z"/>
	</g>
	<g>
		<path class="st0" d="M67.4,136.6l-1.4-0.8c0,0-0.1-0.1,0-0.1c0,0,0.1-0.1,0.1,0l1.4,0.8c0,0,0.1,0.1,0,0.1
			C67.5,136.6,67.4,136.6,67.4,136.6z"/>
		<path class="st0" d="M66.1,134.6c0-0.1,0-0.1-0.1-0.1c-0.1,0-0.1,0-0.1,0.1v0.8l-0.6-0.3v-1.3c0-0.1,0-0.1-0.1-0.1
			c-0.1,0-0.1,0-0.1,0.1v1.1l-1-0.6c0,0-0.1,0-0.1,0c0,0,0,0.1,0,0.1l1,0.6l-1,0.6c0,0-0.1,0.1,0,0.1c0,0,0.1,0.1,0.1,0l1.1-0.6
			l0.6,0.3l-0.7,0.4c0,0-0.1,0.1,0,0.1c0,0,0.1,0.1,0.1,0c0,0,0.9-0.5,0.9-0.5c0,0,0,0,0,0c0,0,0,0,0,0
			C66.1,135.6,66.1,134.7,66.1,134.6z"/>
	</g>
	<g>
		<path class="st0" d="M65.9,138.2c0,0,0-0.1,0-0.1l1.4-0.8c0,0,0.1,0,0.1,0c0,0,0,0.1,0,0.1l-1.4,0.8
			C66,138.3,65.9,138.2,65.9,138.2z"/>
		<path class="st0" d="M66,138l-0.9-0.5c0,0-0.1,0-0.1,0c0,0,0,0.1,0,0.1l0.7,0.4l-0.6,0.3l-1.1-0.6c0,0-0.1,0-0.1,0
			c0,0,0,0.1,0,0.1l1,0.6l-1,0.6c-0.1,0.1-0.1,0.2,0.1,0.2c0,0,0,0,1.1-0.6v1.1c0,0.1,0,0.1,0.1,0.1c0.1,0,0.1,0,0.1-0.1v-1.3
			l0.6-0.3v0.8c0,0.1,0,0.1,0.1,0.1c0.1,0,0.1,0,0.1-0.1L66,138C66.1,138.1,66.1,138.1,66,138z"/>
	</g>
	<g>
		<path class="st0" d="M68.2,139.5c-0.1,0-0.1,0-0.1-0.1v-1.7c0-0.1,0-0.1,0.1-0.1c0.1,0,0.1,0,0.1,0.1v1.7
			C68.3,139.4,68.2,139.5,68.2,139.5z"/>
		<path class="st0" d="M69.4,140.9l-1.1-0.6v-0.7L69,140c0,0,0,0,0.1,0c0.1,0,0.1-0.1,0.1-0.2c0,0-0.9-0.5-0.9-0.5c0,0-0.1,0-0.1,0
			l-0.9,0.5c0,0-0.1,0.1,0,0.1c0,0,0.1,0.1,0.1,0l0.7-0.4v0.7l-1.1,0.6c0,0-0.1,0.1,0,0.1c0,0,0.1,0.1,0.1,0l1-0.6v1.1
			c0,0.1,0,0.1,0.1,0.1c0.1,0,0.1,0,0.1-0.1v-1.1l1,0.6c0,0,0.1,0,0.1,0C69.4,141,69.4,140.9,69.4,140.9z"/>
	</g>
	<g>
		<path class="st0" d="M70.3,138.2l-1.4-0.8c0,0-0.1-0.1,0-0.1c0,0,0.1-0.1,0.1,0l1.4,0.8c0,0,0.1,0.1,0,0.1
			C70.4,138.2,70.3,138.3,70.3,138.2z"/>
		<path class="st0" d="M72.4,139.2l-1-0.6l1-0.6c0,0,0.1-0.1,0-0.1c0,0-0.1-0.1-0.1,0l-1.1,0.6l-0.6-0.3l0.7-0.4c0,0,0.1-0.1,0-0.1
			c0,0-0.1-0.1-0.1,0l-0.9,0.5c0,0,0,0,0,0c0,0,0,0,0,1.1c0,0.1,0,0.1,0.1,0.1c0.1,0,0.1,0,0.1-0.1v-0.8l0.6,0.3v1.3
			c0,0.1,0,0.1,0.1,0.1c0.1,0,0.1,0,0.1-0.1v-1.1l1,0.6c0,0,0.1,0,0.1,0C72.4,139.3,72.4,139.2,72.4,139.2z"/>
	</g>
	<g>
		<path class="st0" d="M68.8,136.5c0,0,0-0.1,0-0.1l1.4-0.8c0,0,0.1,0,0.1,0c0,0,0,0.1,0,0.1l-1.4,0.8
			C68.9,136.6,68.8,136.6,68.8,136.5z"/>
		<path class="st0" d="M72.4,135.7l-1-0.6l1-0.6c0,0,0.1-0.1,0-0.1c0,0-0.1-0.1-0.1,0l-1,0.6v-1.2c0-0.1,0-0.1-0.1-0.1
			c-0.1,0-0.1,0-0.1,0.1v1.3l-0.6,0.3v-0.8c0-0.1,0-0.1-0.1-0.1c-0.1,0-0.1,0-0.1,0.1c0,1,0,1,0,1.1c0,0,0,0,0.9,0.5
			c0,0,0.1,0,0.1,0c0,0,0-0.1,0-0.1l-0.7-0.4l0.6-0.3l1.1,0.6c0,0,0.1,0,0.1,0C72.4,135.8,72.4,135.8,72.4,135.7z"/>
	</g>
</g>
</svg>
