<?xml version="1.0" encoding="utf-8"?>
<!-- Generator: Adobe Illustrator 25.3.1, SVG Export Plug-In . SVG Version: 6.00 Build 0)  -->
<svg version="1.1" id="Layer_1" xmlns="http://www.w3.org/2000/svg" xmlns:xlink="http://www.w3.org/1999/xlink" x="0px" y="0px"
	 width="160px" height="160px" viewBox="0 0 160 160" style="enable-background:new 0 0 160 160;" xml:space="preserve">
<style type="text/css">
	.st0{fill:#414F7F;}
	.st1{fill:#7988B2;}
</style>
<path class="st0" d="M97.9,52.8c-16.1,0.8-29.3,13.1-31.4,28.8c-10-10.3-27.2-8-34.2,4.5l-0.1,0.1c-15.2,0-14.7,0-14.7,0
	C7.8,86.3,0,78.5,0,68.8c0-10.8,9.7-19,20.5-17.2c-2.2-15.3,9.6-28.9,24.9-28.9c12.7,0,23.3,9.4,25,21.7
	C79.5,35.1,95.5,39.9,97.9,52.8z"/>
<path class="st1" d="M160,114c0,12.8-10.4,23.2-23.2,23.2c-0.3,0,7.5,0-118,0c-16.5-0.4-24.7-20-13.9-32.2
	c6.7-7.4,17.5-8.4,25.3-3.1c-1.5-5.8-0.4-11.9,2-15.9c7.1-12.6,24.2-14.8,34.2-4.5c2.3-16.3,16.2-28.9,33.2-28.9
	c20.4,0,36.1,18.1,33.2,38.4C147.1,88.7,160,99.7,160,114z"/>
</svg>
